<svg version="1.0" xmlns="http://www.w3.org/2000/svg"
 width="2000.000000pt" height="1568.000000pt" viewBox="0 0 2000.000000 1568.000000"
 preserveAspectRatio="xMidYMid meet">

<g transform="translate(0.000000,1568.000000) scale(0.100000,-0.100000)"
fill="#000000" stroke="none">
<path d="M9475 14979 c-675 -53 -1147 -196 -1618 -491 -216 -135 -413 -295
-646 -523 -345 -339 -605 -647 -1421 -1690 -574 -734 -976 -1240 -1285 -1620
-45 -55 -670 -863 -1390 -1795 -720 -932 -1594 -2064 -1942 -2514 l-633 -819
0 -2419 0 -2418 598 0 c328 0 937 3 1352 7 l756 6 1429 1880 1430 1879 3 -739
2 -739 1168 -671 c642 -369 1520 -875 1952 -1123 432 -249 790 -453 795 -453
6 0 889 505 1963 1123 l1952 1123 0 746 c0 733 0 745 19 726 10 -11 388 -495
838 -1075 451 -580 1074 -1383 1386 -1785 547 -704 567 -731 567 -772 l0 -43
1355 0 1355 0 0 2428 0 2427 -836 1075 c-460 591 -1066 1372 -1348 1735 -282
363 -765 984 -1073 1380 -307 396 -723 925 -924 1175 -333 415 -523 655 -1228
1555 -605 773 -880 1095 -1212 1420 -656 643 -1280 924 -2212 1000 -203 16
-962 19 -1152 4z m1075 -130 c700 -50 1199 -216 1692 -562 181 -127 316 -244
534 -461 336 -336 615 -670 1399 -1676 374 -479 836 -1063 1105 -1395 124
-154 509 -644 855 -1090 346 -445 737 -949 870 -1120 133 -170 477 -614 765
-985 1299 -1672 1504 -1936 1518 -1952 14 -17 -44 -18 -1214 -18 l-1229 0
-111 143 c-60 78 -274 354 -475 612 -201 259 -790 1017 -1309 1685 -519 668
-982 1262 -1028 1320 -188 232 -763 954 -1003 1260 -140 179 -378 482 -529
675 -311 396 -531 668 -699 865 -156 183 -416 442 -526 524 -172 128 -366 206
-590 236 -131 17 -795 25 -998 11 -446 -30 -641 -124 -993 -475 -255 -256
-487 -537 -1319 -1601 -219 -280 -611 -775 -870 -1100 -410 -513 -965 -1224
-2831 -3627 l-409 -528 -1228 0 -1229 0 50 63 c27 34 206 265 398 512 487 627
1915 2465 2164 2785 757 976 1314 1687 1523 1946 270 336 602 755 1062 1344
695 889 983 1235 1280 1539 734 750 1379 1033 2460 1081 222 10 708 4 915 -11z
m-255 -5496 c153 -612 280 -1113 284 -1113 6 0 145 111 792 633 547 441 762
612 769 615 5 2 -7 -45 -25 -105 -18 -59 -86 -286 -151 -503 -64 -217 -183
-615 -264 -885 -81 -269 -144 -493 -141 -496 3 -3 296 11 651 32 355 20 740
42 855 48 116 7 228 14 250 17 25 3 36 2 30 -4 -5 -6 -138 -85 -295 -177 -976
-574 -1894 -1115 -2140 -1260 -157 -93 -321 -189 -365 -215 -44 -26 -185 -108
-313 -184 l-233 -137 -137 79 c-119 68 -395 227 -1517 872 -121 70 -555 319
-965 555 -410 235 -747 430 -750 433 -13 12 940 -11 1354 -34 252 -14 459 -24
461 -22 1 2 -55 194 -125 428 -339 1132 -461 1543 -457 1546 3 3 287 -230
1565 -1284 23 -19 44 -33 46 -31 1 2 56 238 120 524 65 286 135 597 157 690
82 361 249 1104 249 1112 2 33 50 -153 295 -1134z"/>
</g>
</svg>
