<svg width="468" height="50" viewBox="0 0 468 50" fill="none" xmlns="http://www.w3.org/2000/svg">
<path d="M393.638 8.52996H467.408V0.0799561H393.638C390.948 0.0799561 388.258 0.729956 385.858 1.94996C383.458 3.16996 381.348 4.96996 379.768 7.13996L374.398 14.51C373.278 16.05 372.418 17.74 371.838 19.55C371.268 21.31 370.988 23.15 370.988 25C370.988 26.85 371.278 28.69 371.838 30.45C372.418 32.26 373.278 33.95 374.398 35.49L379.768 42.86C381.358 45.04 383.458 46.83 385.858 48.05C388.258 49.27 390.948 49.92 393.638 49.92H467.408V41.25H393.638C391.488 41.25 389.438 40.21 388.168 38.47L380.648 29.15H466.398V20.83H380.648L388.168 11.31C389.438 9.56996 391.478 8.52996 393.638 8.52996Z" fill="#B0E5FF"/>
<path d="M361.431 0.0799561L346.711 20.07C344.311 23.21 342.311 25.84 340.601 28.21C332.391 39.52 332.311 39.52 326.101 39.52C320.271 39.52 320.161 39.52 311.991 29.07C310.071 26.61 307.681 23.56 304.761 19.96L289.321 0.0799561H276.141L296.581 26.39L296.651 26.48C299.531 30.02 301.891 33.04 303.801 35.48C308.181 41.08 310.821 44.46 313.871 46.68C317.591 49.39 321.321 49.93 326.121 49.93C328.901 49.93 330.951 49.73 332.771 49.28C334.961 48.74 336.911 47.8 338.721 46.42C341.821 44.04 344.511 40.42 348.971 34.41C350.691 32.09 352.651 29.46 355.021 26.36L355.051 26.32L374.381 0.0799561H361.451H361.431Z" fill="#B0E5FF"/>
<path d="M189.66 40.95C188.73 39.78 187.86 38.69 187.04 37.66C182.01 31.33 178.99 27.54 176.38 25C178.08 23.35 179.95 21.16 182.44 18.09C183.77 16.45 185.28 14.55 187.04 12.34C187.86 11.31 188.73 10.21 189.66 9.04996L189.69 9.00996L196.55 0.0799561H183.43L181.5 2.59996C180.58 3.75996 179.71 4.83996 178.9 5.86996C173.9 12.16 170.73 16.14 168.54 18.1C168.36 18.26 168.19 18.4 168.03 18.53C166.76 19.55 166.06 19.8 162.58 19.8H113.82V0.0799561H103.41V49.92H113.82V30.2H162.58C166.06 30.2 166.76 30.46 168.03 31.47C170.24 33.23 173.5 37.34 178.9 44.13C179.71 45.15 180.58 46.24 181.5 47.4L183.43 49.92H196.55L189.72 41.03L189.66 40.95Z" fill="#B0E5FF"/>
<path d="M78.3003 23.5199C75.4203 19.9799 73.0603 16.9599 71.1503 14.5199C66.7703 8.91995 64.1303 5.53995 61.0803 3.31995C57.3603 0.609946 53.6303 0.0699463 48.8303 0.0699463C46.0503 0.0699463 44.0003 0.269947 42.1803 0.719947C39.9903 1.25995 38.0403 2.19995 36.2303 3.58995C33.1303 5.96995 30.4403 9.58995 25.9803 15.5999C24.2603 17.9199 22.3003 20.5499 19.9303 23.6499L19.9003 23.6899L0.570312 49.9299H13.5003L28.2203 29.9399C30.6203 26.7999 32.5903 24.1499 34.3303 21.7999C38.1103 16.7099 40.6003 13.3399 42.5503 11.8599C43.7903 10.9099 44.9903 10.4899 48.8303 10.4899C54.6603 10.4899 54.7703 10.4899 62.9403 20.9399C64.8603 23.3999 67.2503 26.4499 70.1703 30.0499L85.6103 49.9299H98.7903L78.3503 23.6199L78.2803 23.5299L78.3003 23.5199Z" fill="#B0E5FF"/>
<path d="M279.439 23.52C276.569 19.99 274.199 16.96 272.299 14.53C267.919 8.92997 265.279 5.54997 262.239 3.33997C258.519 0.629966 254.799 0.0899658 249.999 0.0899658C245.199 0.0899658 241.479 0.629966 237.759 3.33997C234.709 5.55997 232.069 8.93997 227.699 14.53C225.799 16.96 223.429 19.99 220.559 23.52L220.489 23.61L200.059 49.91H213.239L228.679 30.04C231.599 26.45 233.989 23.39 235.909 20.93C244.079 10.48 244.189 10.48 250.019 10.48C255.849 10.48 255.959 10.48 264.129 20.93C266.049 23.39 268.439 26.44 271.359 30.04L286.799 49.91H299.979L279.549 23.61L279.479 23.52H279.439Z" fill="#B0E5FF"/>
<path d="M260.911 37.89L259.761 37.9501L260.091 36.85L263.521 25.34L254.601 32.5201L253.621 33.3101L253.321 32.09L250.041 21.05L246.991 32.5201L246.701 33.8L245.691 32.9701L236.501 25.39L239.911 36.82L240.241 37.92L239.101 37.85L234.951 37.62L228.711 37.5L250.001 49.7401L271.141 37.3L265.081 37.6501L260.911 37.89Z" fill="#B0E5FF"/>
</svg>
