<?xml version="1.0" standalone="no"?>
<!DOCTYPE svg PUBLIC "-//W3C//DTD SVG 20010904//EN"
 "http://www.w3.org/TR/2001/REC-SVG-20010904/DTD/svg10.dtd">
<svg version="1.0" xmlns="http://www.w3.org/2000/svg"
 width="500.000000pt" height="500.000000pt" viewBox="0 0 500.000000 500.000000"
 preserveAspectRatio="xMidYMid meet">

<g transform="translate(0.000000,500.000000) scale(0.100000,-0.100000)"
fill="#000000" stroke="none">
<path d="M1635 3598 c-3 -7 -4 -209 -3 -448 l3 -435 125 0 125 0 0 445 0 445
-123 3 c-92 2 -124 -1 -127 -10z"/>
<path d="M2026 3594 c-8 -20 -8 -847 0 -868 5 -13 26 -16 130 -16 l124 0 2
178 3 177 55 5 c48 4 55 8 60 30 6 24 9 25 103 28 94 3 97 3 97 26 0 18 7 25
30 30 l31 6 -3 147 -3 147 -25 6 c-18 4 -26 14 -28 32 -2 21 -9 28 -30 30 -18
2 -28 10 -32 28 l-6 25 -251 3 c-222 2 -251 1 -257 -14z m314 -69 c0 -20 6
-27 30 -31 l30 -6 0 -149 0 -149 -30 -6 c-24 -5 -30 -12 -30 -31 0 -21 -4 -24
-27 -21 l-28 3 -3 195 c-1 107 0 200 2 207 3 7 17 13 31 13 20 0 25 -5 25 -25z"/>
<path d="M2865 3595 c-3 -8 -7 -21 -9 -29 -3 -8 -15 -16 -27 -18 -15 -2 -25
-12 -29 -28 -3 -14 -14 -27 -25 -29 -11 -2 -23 -8 -27 -15 -4 -6 -8 -152 -8
-324 l0 -313 29 -10 c19 -7 31 -19 33 -32 2 -13 13 -23 28 -27 15 -4 26 -15
30 -30 l6 -25 224 0 224 0 6 25 c4 15 15 26 30 30 24 6 25 8 25 100 l0 95
-125 0 -125 0 -3 -98 -3 -98 -27 3 c-19 2 -28 10 -30 25 -2 13 -14 25 -33 32
l-29 10 2 323 3 322 25 6 c15 4 26 15 30 30 4 18 13 25 30 25 24 0 25 -3 28
-67 3 -64 4 -67 30 -70 21 -2 28 -9 30 -31 l3 -28 97 3 97 3 0 95 0 95 -31 3
c-26 3 -33 8 -38 33 l-5 29 -216 0 c-183 0 -216 -2 -220 -15z"/>
<path d="M1405 2258 c-3 -7 -4 -209 -3 -448 l3 -435 270 0 269 0 6 25 c4 16
14 26 28 28 13 2 22 10 22 21 0 22 19 41 42 41 17 0 18 13 18 165 l0 165 -25
0 c-20 0 -27 6 -31 30 -6 27 -10 29 -58 32 -47 3 -51 5 -51 28 0 22 5 26 40
30 32 4 41 10 43 27 2 14 11 23 25 25 21 3 22 9 25 111 l3 107 -24 0 c-19 0
-26 7 -30 30 l-6 30 -281 0 c-215 0 -282 -3 -285 -12z m315 -78 c4 -16 14 -26
28 -28 20 -3 22 -9 22 -77 0 -68 -2 -74 -22 -77 -14 -2 -24 -12 -28 -28 -4
-18 -12 -25 -30 -25 l-25 0 -3 133 -3 133 28 -3 c20 -2 29 -10 33 -28z m-12
-312 c7 -7 12 -20 12 -30 0 -13 8 -18 25 -18 l25 0 0 -164 c0 -162 0 -165 -22
-168 -14 -2 -24 -12 -28 -28 -4 -18 -13 -26 -33 -28 l-27 -3 0 219 c0 120 3
222 7 225 10 11 28 8 41 -5z"/>
<path d="M2167 2263 c-4 -3 -7 -62 -7 -130 l0 -123 54 0 c51 0 54 1 60 30 4
24 11 30 30 30 24 0 25 3 28 68 3 65 4 67 30 70 l28 3 2 -418 3 -418 125 0
125 0 3 418 2 418 28 -3 c26 -3 27 -5 30 -70 2 -57 6 -68 20 -68 23 0 42 -19
42 -43 0 -16 7 -18 53 -15 l52 3 0 125 0 125 -351 3 c-193 1 -353 -1 -357 -5z"/>
<path d="M3097 2264 c-4 -4 -7 -18 -7 -31 0 -18 -6 -23 -24 -23 -18 0 -27 -8
-35 -30 -7 -20 -17 -30 -30 -30 -21 0 -21 -4 -21 -330 0 -326 0 -330 21 -330
13 0 23 -10 30 -29 7 -19 19 -31 32 -33 13 -2 23 -13 27 -28 l6 -25 226 -3
227 -2 3 27 c2 22 9 29 31 31 l28 3 -3 97 -3 97 -125 0 -125 0 -3 -98 -3 -98
-27 3 c-19 2 -28 9 -30 25 -2 15 -13 25 -28 29 l-24 6 0 328 0 329 22 3 c14 2
24 12 28 28 4 18 14 26 32 28 27 3 27 2 30 -64 3 -63 5 -69 28 -74 15 -4 26
-15 30 -30 6 -24 8 -25 100 -25 l95 0 0 95 0 95 -30 5 c-21 4 -31 12 -35 30
l-6 25 -215 3 c-118 1 -218 -1 -222 -4z"/>
</g>
</svg>
