<svg width="193" height="65" viewBox="0 0 193 65" fill="none" xmlns="http://www.w3.org/2000/svg">
<path d="M80.0201 36.2237C79.0388 36.2264 78.0622 36.0884 77.1201 35.8137C76.3157 35.6195 75.5533 35.2806 74.8701 34.8137L75.8701 32.6137C76.4513 33.0437 77.0956 33.381 77.7801 33.6137C78.5052 33.858 79.265 33.983 80.0301 33.9837C80.5034 33.9979 80.9759 33.9372 81.4301 33.8037C81.7283 33.7163 81.9976 33.5505 82.2101 33.3237C82.3779 33.1337 82.4672 32.8871 82.4601 32.6337C82.4613 32.4793 82.4267 32.3268 82.359 32.188C82.2913 32.0492 82.1925 31.9279 82.0701 31.8337C81.748 31.6099 81.3893 31.4441 81.0101 31.3437C80.5701 31.2237 80.1001 31.1037 79.5801 30.9837C79.0601 30.8637 78.5801 30.7337 78.0201 30.5737C77.5146 30.4186 77.0308 30.2003 76.5801 29.9237C76.1673 29.6549 75.8245 29.2915 75.5801 28.8637C75.3041 28.3588 75.1694 27.7888 75.1901 27.2137C75.181 26.5043 75.3829 25.8082 75.7701 25.2137C76.2041 24.5774 76.8164 24.0834 77.5301 23.7937C78.48 23.4021 79.5036 23.2212 80.5301 23.2637C81.3186 23.2619 82.1043 23.3559 82.8701 23.5437C83.5749 23.7178 84.2492 23.9977 84.8701 24.3737L83.9501 26.5737C83.4062 26.2521 82.8207 26.0065 82.2101 25.8437C81.6463 25.6889 81.0647 25.6082 80.4801 25.6037C80.0093 25.5863 79.539 25.6506 79.0901 25.7937C78.7898 25.8804 78.5241 26.0587 78.3301 26.3037C78.1714 26.5105 78.0837 26.763 78.0801 27.0237C78.0785 27.1806 78.114 27.3358 78.1834 27.4765C78.2529 27.6172 78.3545 27.7396 78.4801 27.8337C78.7807 28.0545 79.1198 28.2173 79.4801 28.3137L80.9201 28.6537C81.4509 28.7644 81.975 28.9046 82.4901 29.0737C82.9864 29.232 83.4628 29.4468 83.9101 29.7137C84.3338 29.9636 84.696 30.3053 84.9701 30.7137C85.2484 31.2109 85.3866 31.7742 85.3701 32.3437C85.3885 33.0558 85.182 33.7556 84.7801 34.3437C84.3343 34.973 83.7211 35.4649 83.0101 35.7637C82.0575 36.1279 81.0382 36.2848 80.0201 36.2237Z" fill="#FFD37B"/>
<path d="M91.8101 36.1537C90.8454 36.1669 89.8918 35.9474 89.03 35.5137C88.2302 35.108 87.5616 34.4842 87.1015 33.7144C86.6414 32.9446 86.4086 32.0603 86.4301 31.1637C86.4116 30.2589 86.6509 29.3675 87.1201 28.5937C87.5843 27.8412 88.2445 27.2294 89.03 26.8237C89.8888 26.3807 90.844 26.1574 91.8101 26.1737C92.7432 26.1562 93.6655 26.3764 94.4901 26.8137C95.2259 27.214 95.8041 27.8521 96.1301 28.6237L93.9701 29.8137C93.7343 29.3953 93.3884 29.0495 92.9701 28.8137C92.5946 28.6038 92.1702 28.4967 91.7401 28.5037C91.2972 28.4971 90.8601 28.6039 90.4701 28.8137C90.0849 29.0258 89.7664 29.3409 89.5501 29.7237C89.3264 30.1725 89.21 30.6672 89.21 31.1687C89.21 31.6702 89.3264 32.1648 89.5501 32.6137C89.7632 33.0015 90.0822 33.3206 90.4701 33.5337C90.8601 33.7435 91.2972 33.8502 91.7401 33.8437C92.1702 33.8506 92.5946 33.7436 92.9701 33.5337C93.391 33.3013 93.7377 32.9546 93.9701 32.5337L96.1301 33.7237C95.8008 34.4907 95.2232 35.1247 94.4901 35.5237C93.6662 35.9617 92.7428 36.1788 91.8101 36.1537Z" fill="#FFD37B"/>
<path d="M100.78 36.1537C100.116 36.1712 99.4559 36.0378 98.8503 35.7637C98.3446 35.536 97.9119 35.1725 97.6003 34.7137C97.3055 34.2696 97.1522 33.7466 97.1603 33.2137C97.1516 32.6835 97.2976 32.1623 97.5803 31.7137C97.9094 31.2465 98.3787 30.8962 98.9203 30.7137C99.695 30.4481 100.512 30.3261 101.33 30.3537H103.89V31.9737H101.62C101.138 31.9135 100.65 32.0231 100.24 32.2837C100.12 32.381 100.024 32.5047 99.9601 32.6452C99.8959 32.7858 99.8652 32.9393 99.8703 33.0937C99.8656 33.26 99.9025 33.4248 99.9776 33.5732C100.053 33.7216 100.164 33.8489 100.3 33.9437C100.635 34.1717 101.036 34.284 101.44 34.2637C101.892 34.2708 102.337 34.1569 102.73 33.9337C103.112 33.7112 103.397 33.3548 103.53 32.9337L103.96 34.2537C103.768 34.8377 103.37 35.3318 102.84 35.6437C102.213 35.9994 101.501 36.1758 100.78 36.1537ZM103.78 36.0037V34.1137L103.6 33.7037V30.2837C103.613 30.0247 103.571 29.766 103.476 29.5246C103.381 29.2832 103.236 29.0647 103.05 28.8837C102.571 28.5164 101.973 28.3384 101.37 28.3837C100.851 28.3837 100.335 28.4648 99.8403 28.6237C99.3787 28.7682 98.9457 28.9915 98.5603 29.2837L97.5603 27.2837C98.1387 26.8798 98.7859 26.5849 99.4703 26.4137C100.207 26.2146 100.967 26.1137 101.73 26.1137C102.966 26.0353 104.189 26.4084 105.17 27.1637C105.608 27.5791 105.946 28.0882 106.159 28.6527C106.372 29.2173 106.454 29.8227 106.4 30.4237V35.9437L103.78 36.0037Z" fill="#FFD37B"/>
<path d="M108.89 36.0037V22.6537H111.7V36.0037H108.89Z" fill="#FFD37B"/>
<path d="M115.72 24.9737C115.251 24.9964 114.792 24.8349 114.44 24.5237C114.285 24.3822 114.162 24.21 114.077 24.018C113.992 23.826 113.948 23.6185 113.948 23.4087C113.948 23.1988 113.992 22.9913 114.077 22.7993C114.162 22.6074 114.285 22.4352 114.44 22.2937C114.792 21.9825 115.251 21.821 115.72 21.8437C116.177 21.8257 116.625 21.975 116.98 22.2636C117.14 22.396 117.268 22.5628 117.355 22.7515C117.441 22.9402 117.484 23.1461 117.48 23.3537C117.487 23.5709 117.447 23.787 117.362 23.9872C117.277 24.1874 117.151 24.3669 116.99 24.5136C116.819 24.6702 116.619 24.7914 116.401 24.8703C116.183 24.9493 115.952 24.9844 115.72 24.9737ZM114.31 35.9737V26.2837H117.12V35.9637L114.31 35.9737Z" fill="#FFD37B"/>
<path d="M119.73 36.0036V26.2837H122.41V28.9637L121.91 28.1537C122.243 27.5161 122.763 26.996 123.4 26.6637C124.061 26.3275 124.791 26.1464 125.532 26.1343C126.274 26.1222 127.008 26.2793 127.68 26.5937C128.288 26.9095 128.786 27.4008 129.11 28.0036C129.481 28.755 129.66 29.5864 129.63 30.4237V35.9637H126.82V30.8537C126.87 30.2338 126.688 29.6177 126.31 29.1237C126.122 28.9324 125.896 28.7834 125.646 28.6868C125.396 28.5902 125.128 28.5483 124.86 28.5637C124.442 28.559 124.03 28.6586 123.66 28.8537C123.306 29.0494 123.017 29.345 122.83 29.7037C122.62 30.1642 122.52 30.6677 122.54 31.1737V35.9637L119.73 36.0036Z" fill="#FFD37B"/>
<path d="M136.24 35.5437C135.401 35.5501 134.572 35.3473 133.83 34.9536C133.089 34.5617 132.472 33.9699 132.049 33.2452C131.627 32.5206 131.416 31.6921 131.44 30.8537C131.417 29.9852 131.642 29.128 132.09 28.3836C132.509 27.6905 133.111 27.1265 133.83 26.7536C134.575 26.3677 135.402 26.1687 136.24 26.1737C137 26.1568 137.753 26.3286 138.43 26.6737C139.066 27.0192 139.574 27.5588 139.88 28.2137C140.57 29.9062 140.57 31.8012 139.88 33.4937C139.571 34.1466 139.063 34.6854 138.43 35.0337C137.755 35.3867 137.002 35.5622 136.24 35.5437ZM136.69 39.6437C135.803 39.6467 134.919 39.5359 134.06 39.3137C133.295 39.123 132.574 38.7832 131.94 38.3137L133.06 36.3137C133.52 36.6827 134.046 36.9609 134.61 37.1336C135.221 37.3321 135.859 37.4334 136.5 37.4337C137.277 37.498 138.048 37.2577 138.65 36.7636C138.898 36.4966 139.087 36.1808 139.206 35.8364C139.325 35.492 139.371 35.1267 139.34 34.7636V33.2837L139.52 30.8337V28.3737V26.2837H142.18V34.3437C142.244 35.0716 142.152 35.8047 141.911 36.4944C141.67 37.184 141.284 37.8144 140.78 38.3437C139.637 39.2834 138.177 39.7487 136.7 39.6437H136.69ZM136.82 33.2536C137.276 33.2639 137.727 33.1572 138.13 32.9436C138.506 32.7574 138.819 32.4654 139.03 32.1037C139.255 31.7258 139.369 31.2929 139.36 30.8537C139.37 30.4142 139.256 29.9809 139.03 29.6037C138.817 29.2508 138.504 28.969 138.13 28.7937C137.724 28.5915 137.274 28.4919 136.82 28.5036C136.367 28.4939 135.917 28.5934 135.51 28.7937C135.136 28.9712 134.82 29.2523 134.6 29.6037C134.367 29.978 134.249 30.4127 134.26 30.8537C134.25 31.2944 134.369 31.7286 134.6 32.1037C134.819 32.4636 135.134 32.7547 135.51 32.9436C135.914 33.1672 136.369 33.2842 136.83 33.2837L136.82 33.2536Z" fill="#FFD37B"/>
<path d="M150.02 36.0037V23.4037H152.96V33.6337H159.24V36.0037H150.02Z" fill="#FFD37B"/>
<path d="M163.7 36.1537C163.039 36.17 162.383 36.0367 161.78 35.7637C161.274 35.536 160.842 35.1725 160.53 34.7137C160.232 34.2704 160.076 33.7476 160.08 33.2137C160.075 32.6826 160.225 32.1614 160.51 31.7137C160.839 31.2465 161.309 30.8962 161.85 30.7137C162.625 30.4472 163.442 30.3252 164.26 30.3537H166.82V31.9737H164.55C164.091 31.9297 163.631 32.0387 163.24 32.2837C163.117 32.384 163.017 32.5106 162.949 32.6542C162.881 32.7978 162.845 32.9547 162.845 33.1137C162.845 33.2727 162.881 33.4297 162.949 33.5733C163.017 33.7168 163.117 33.8433 163.24 33.9437C163.579 34.1705 163.983 34.2826 164.39 34.2637C164.839 34.2725 165.282 34.1584 165.67 33.9337C166.057 33.7174 166.344 33.3586 166.47 32.9337L166.91 34.2537C166.715 34.8359 166.318 35.3291 165.79 35.6437C165.153 36.0014 164.43 36.1777 163.7 36.1537ZM166.7 36.0037V34.1137L166.51 33.7037V30.2837C166.525 30.0254 166.484 29.7669 166.391 29.5255C166.298 29.284 166.155 29.0652 165.97 28.8837C165.487 28.5149 164.886 28.3369 164.28 28.3837C163.764 28.3848 163.251 28.4658 162.76 28.6237C162.295 28.766 161.858 28.9894 161.47 29.2837L160.47 27.2837C161.045 26.8799 161.689 26.585 162.37 26.4137C163.11 26.2146 163.874 26.1137 164.64 26.1137C165.876 26.0371 167.098 26.41 168.08 27.1637C168.51 27.5947 168.838 28.1169 169.038 28.6916C169.239 29.2663 169.308 29.8788 169.24 30.4837V36.0037H166.7Z" fill="#FFD37B"/>
<path d="M171.82 36.0037V22.6537H174.63V28.2837L174.45 31.1437V34.0237V36.0237L171.82 36.0037ZM177.53 36.1537C176.773 36.1699 176.025 35.9871 175.36 35.6237C174.722 35.2408 174.224 34.6621 173.94 33.9737C173.594 33.0787 173.43 32.1231 173.46 31.1637C173.426 30.2012 173.6 29.2427 173.97 28.3537C174.27 27.6747 174.768 27.1027 175.4 26.7137C176.048 26.3437 176.784 26.1571 177.53 26.1737C178.395 26.1587 179.248 26.3763 180 26.8037C180.724 27.212 181.322 27.8102 181.73 28.5337C182.151 29.3465 182.371 30.2484 182.371 31.1637C182.371 32.079 182.151 32.9809 181.73 33.7937C181.319 34.5178 180.722 35.1187 180 35.5337C179.246 35.9536 178.394 36.1674 177.53 36.1537ZM177.06 33.8437C177.497 33.8527 177.928 33.7457 178.31 33.5337C178.687 33.315 178.993 32.992 179.19 32.6037C179.419 32.1587 179.532 31.6637 179.52 31.1637C179.532 30.6637 179.419 30.1687 179.19 29.7237C178.986 29.3453 178.682 29.0304 178.31 28.8137C177.928 28.6017 177.497 28.4946 177.06 28.5037C176.62 28.4943 176.186 28.6013 175.8 28.8137C175.426 29.0298 175.118 29.3446 174.91 29.7237C174.678 30.1678 174.562 30.6628 174.57 31.1637C174.562 31.6646 174.678 32.1596 174.91 32.6037C175.111 32.9927 175.42 33.3156 175.8 33.5337C176.186 33.7461 176.62 33.8531 177.06 33.8437Z" fill="#FFD37B"/>
<path d="M187.52 36.1537C186.717 36.1568 185.917 36.056 185.14 35.8537C184.498 35.7017 183.883 35.4485 183.32 35.1037L184.24 33.1037C184.74 33.3903 185.274 33.6121 185.83 33.7637C186.411 33.936 187.014 34.0235 187.62 34.0237C188.092 34.0608 188.566 33.9818 189 33.7937C189.122 33.7342 189.225 33.6418 189.298 33.527C189.37 33.4122 189.409 33.2794 189.41 33.1437C189.412 33.0367 189.383 32.9316 189.326 32.841C189.269 32.7504 189.187 32.6783 189.09 32.6336C188.831 32.4999 188.55 32.412 188.26 32.3737L187.12 32.1936C186.699 32.132 186.281 32.0452 185.87 31.9337C185.469 31.8335 185.083 31.6823 184.72 31.4837C184.371 31.2886 184.078 31.006 183.87 30.6637C183.628 30.191 183.522 29.6607 183.562 29.1313C183.603 28.6018 183.789 28.0939 184.1 27.6637C184.496 27.1573 185.026 26.7726 185.63 26.5537C186.395 26.2715 187.206 26.1358 188.02 26.1537C188.693 26.1587 189.364 26.2358 190.02 26.3836C190.617 26.5066 191.193 26.7155 191.73 27.0036L190.78 29.0036C190.348 28.7482 189.879 28.5594 189.39 28.4436C188.944 28.3391 188.488 28.2854 188.03 28.2837C187.547 28.2491 187.062 28.335 186.62 28.5337C186.496 28.5922 186.39 28.6838 186.314 28.7984C186.238 28.9131 186.196 29.0464 186.19 29.1837C186.188 29.2959 186.216 29.4067 186.273 29.5037C186.329 29.6007 186.412 29.6803 186.51 29.7337C186.776 29.8731 187.063 29.9677 187.36 30.0137L188.51 30.1936C188.928 30.2509 189.343 30.3344 189.75 30.4436C190.151 30.5487 190.537 30.7033 190.9 30.9037C191.247 31.099 191.537 31.3817 191.74 31.7237C191.969 32.1358 192.079 32.6028 192.06 33.0736C192.065 33.6433 191.875 34.1975 191.52 34.6437C191.11 35.143 190.57 35.52 189.96 35.7337C189.179 36.0194 188.352 36.1617 187.52 36.1537Z" fill="#FFD37B"/>
<path d="M32.4003 56.9737C46.9695 56.9737 58.7803 45.163 58.7803 30.5937C58.7803 16.0244 46.9695 4.21368 32.4003 4.21368C17.831 4.21368 6.02026 16.0244 6.02026 30.5937C6.02026 45.163 17.831 56.9737 32.4003 56.9737Z" fill="url(#paint0_linear_225_656)"/>
<path d="M32.6304 2.89366C33.352 2.88539 34.0733 2.92212 34.7903 3.00364C35.5003 3.07364 36.2203 3.18365 36.9203 3.32365C38.3452 3.6044 39.7461 3.99562 41.1104 4.49369C43.8614 5.49581 46.4365 6.92682 48.7404 8.73368L49.5804 9.44364C49.8604 9.67364 50.1304 9.92369 50.4004 10.1837C50.9404 10.6737 51.4004 11.1836 51.9304 11.7536C52.4604 12.3236 52.9304 12.8737 53.3004 13.4737L53.6304 13.9237C53.7418 14.0658 53.842 14.2162 53.9304 14.3737L54.5204 15.3037C56.0274 17.7914 57.0456 20.544 57.5204 23.4137C56.3929 20.8384 54.9986 18.3883 53.3604 16.1037C52.5333 14.9988 51.6417 13.9436 50.6904 12.9436C50.2004 12.4636 49.6904 11.9437 49.2104 11.5137C48.7304 11.0837 48.2104 10.6137 47.6404 10.1737C45.4736 8.47144 43.1261 7.01263 40.6404 5.82365C39.3804 5.22365 38.0904 4.68364 36.7704 4.19364C35.4504 3.70364 34.0204 3.28366 32.6304 2.89366Z" fill="url(#paint1_linear_225_656)"/>
<path d="M6.66016 44.8437C7.53016 45.8437 8.43015 46.8437 9.37015 47.7637C10.3101 48.6837 11.2802 49.5737 12.2802 50.4037C14.2663 52.0698 16.4136 53.5337 18.6902 54.7737C19.2602 55.0737 19.8301 55.3737 20.4201 55.6337C21.0101 55.8937 21.6002 56.1537 22.1902 56.4137C23.3942 56.8828 24.6227 57.2867 25.8701 57.6237C28.4236 58.2737 31.0311 58.6887 33.6602 58.8637C30.9967 59.4137 28.2554 59.4747 25.5701 59.0437L24.5701 58.8637C24.2301 58.8037 23.9001 58.7037 23.5701 58.6337C22.9001 58.4837 22.2501 58.2537 21.5701 58.0537L20.5701 57.6937C20.2501 57.5737 19.9301 57.4337 19.6201 57.3037C18.9801 57.0337 18.3801 56.7137 17.7601 56.4037C15.3573 55.0888 13.1633 53.4239 11.2502 51.4637C10.2995 50.4939 9.4268 49.4507 8.64014 48.3437C8.24021 47.7971 7.8697 47.2297 7.53015 46.6437C7.19911 46.0644 6.90843 45.463 6.66016 44.8437Z" fill="url(#paint2_linear_225_656)"/>
<path d="M66.2403 59.9737L56.2403 49.9737C55.9694 49.7069 55.8008 49.3534 55.7643 48.975C55.7277 48.5966 55.8254 48.2173 56.0403 47.9037C60.3969 41.4901 62.1628 33.6644 60.9826 26.0014C59.8023 18.3384 55.7636 11.4068 49.679 6.60129C43.5944 1.79582 35.9156 -0.526856 28.1876 0.100682C20.4597 0.728219 13.2562 4.2594 8.0267 9.98362C2.79717 15.7078 -0.0702939 23.2002 0.00130938 30.9533C0.0729126 38.7063 3.07826 46.1446 8.41263 51.7712C13.747 57.3979 21.0145 60.7954 28.7527 61.2801C36.4909 61.7648 44.1255 59.3007 50.1203 54.3836C50.4343 54.1235 50.8344 53.9905 51.2417 54.0108C51.649 54.0312 52.0338 54.2035 52.3203 54.4937L61.9803 64.1537C62.287 64.4554 62.7001 64.6244 63.1303 64.6244C63.5606 64.6244 63.9736 64.4554 64.2803 64.1537L66.2403 62.2837C66.3936 62.1329 66.5153 61.9532 66.5984 61.7549C66.6816 61.5566 66.7243 61.3436 66.7243 61.1286C66.7243 60.9136 66.6816 60.7008 66.5984 60.5025C66.5153 60.3042 66.3936 60.1244 66.2403 59.9737ZM6.07028 30.7937C6.0683 25.91 7.51467 21.1355 10.2264 17.0739C12.9382 13.0123 16.7936 9.84619 21.3049 7.97593C25.8162 6.10566 30.7809 5.61533 35.5709 6.56687C40.361 7.51841 44.7612 9.86913 48.2152 13.3217C51.6692 16.7743 54.0217 21.1736 54.9752 25.9632C55.9286 30.7529 55.4403 35.7177 53.5718 40.2298C51.7034 44.7419 48.5388 48.5985 44.4784 51.3119C40.4179 54.0253 35.6439 55.4737 30.7603 55.4737C24.2076 55.479 17.9209 52.8824 13.2818 48.2546C8.64275 43.6267 6.03089 37.3464 6.02029 30.7937H6.07028Z" fill="url(#paint3_radial_225_656)"/>
<path d="M31.2402 2.5737C31.9583 2.56232 32.6763 2.59576 33.3902 2.67374C34.1102 2.74374 34.8202 2.86369 35.5302 3.00369C39.8391 3.84282 43.8869 5.69367 47.3402 8.40372C47.6302 8.63372 47.9002 8.88374 48.1802 9.11374C48.4602 9.34374 48.7302 9.60373 49.0002 9.85373C49.5402 10.3537 50.0002 10.8537 50.5302 11.4337C51.0602 12.0137 51.5302 12.5437 51.9102 13.1537L52.2302 13.5937L52.5402 14.0437L53.1202 14.9737C54.621 17.4681 55.6388 20.2227 56.1202 23.0937C54.9833 20.518 53.586 18.0652 51.9502 15.7737C51.1265 14.6689 50.2383 13.6138 49.2902 12.6137C48.7902 12.1437 48.2902 11.6137 47.8002 11.1937C47.3102 10.7737 46.8002 10.2937 46.2302 9.85373C44.0659 8.14798 41.718 6.68893 39.2302 5.50369C37.9802 4.89369 36.6802 4.35374 35.3602 3.86374C34.0402 3.37374 32.6602 2.9437 31.2402 2.5737Z" fill="url(#paint4_linear_225_656)"/>
<path d="M5.30029 44.5237C6.17029 45.5237 7.08029 46.5237 8.02029 47.4337C8.96029 48.3437 9.92029 49.2437 10.9203 50.0837C12.9106 51.7442 15.0573 53.2077 17.3303 54.4537C17.9003 54.7437 18.4703 55.0537 19.0603 55.3137C19.6503 55.5737 20.2403 55.8237 20.8303 56.0837C22.0358 56.5516 23.264 56.9588 24.5103 57.3037C27.0637 57.9537 29.6713 58.3687 32.3003 58.5437C29.6369 59.0939 26.8956 59.1549 24.2103 58.7237L23.2103 58.5337C22.8703 58.4737 22.5503 58.3837 22.2103 58.3037C21.5403 58.1537 20.8903 57.9337 20.2103 57.7237C19.8803 57.6137 19.5603 57.4837 19.2103 57.3637C18.8603 57.2437 18.5703 57.1137 18.2603 56.9737C17.6303 56.7037 17.0203 56.3837 16.4103 56.0737C14.0025 54.7658 11.8047 53.104 9.89029 51.1437C8.94487 50.1692 8.07252 49.1264 7.2803 48.0237C6.8903 47.4637 6.51029 46.9037 6.17029 46.3237C5.84319 45.7423 5.55263 45.1412 5.30029 44.5237Z" fill="url(#paint5_linear_225_656)"/>
<path d="M40.7403 15.3537L40.3303 15.1237C39.9803 14.9337 39.6103 14.7537 39.2303 14.5737L40.0703 12.1537L37.5403 11.2837L36.7303 13.6037L36.2403 13.4237C35.7403 13.2437 35.2403 13.0637 34.7403 12.9037L35.5403 10.5937L32.9403 9.68372L32.1403 12.0037L29.1403 11.0037L26.9503 10.2337L26.0203 12.9237C26.0203 12.9237 27.8603 13.5137 27.8603 13.5637C28.1442 13.6292 28.401 13.7804 28.596 13.9969C28.791 14.2133 28.9147 14.4845 28.9503 14.7737C28.958 14.9506 28.9308 15.1273 28.8703 15.2937L27.3103 19.6837L26.5703 21.8437L26.4603 22.1637L25.7203 24.3037L25.2403 25.6837L25.0903 26.1137C24.9748 26.3305 24.7836 26.4973 24.553 26.5821C24.3225 26.6669 24.0688 26.6639 23.8403 26.5737C23.8403 26.5737 23.2103 26.3637 22.6403 26.1437L22.2103 25.9937L21.5503 25.7437L21.2703 26.5637L21.1603 26.8937L21.0803 27.1137L20.9603 27.4737L20.8503 27.7937L20.5503 28.6837L21.2003 28.9237L21.6303 29.0837L25.5503 30.5437L25.5003 30.6937L25.2203 31.4937L24.5803 33.3337L25.2703 33.5737L25.6103 33.6937L26.0703 33.8537L26.3903 33.9637L26.9903 34.1737H27.1003L28.1003 31.3737C28.5103 31.5337 28.9203 31.6637 29.3203 31.7937L30.1803 32.0837L29.1803 34.8837L30.4503 35.3337L30.7703 35.4437L31.7003 35.7637L32.7003 32.9637L33.3503 33.1537L33.7303 33.2537C35.9703 33.8237 37.9103 33.9737 39.4503 33.3237C39.6639 33.231 39.871 33.1241 40.0703 33.0037C40.2724 32.8725 40.4661 32.7289 40.6503 32.5737L40.7303 32.5137C41.0107 32.2551 41.2622 31.9667 41.4803 31.6537L41.5803 31.5137C41.7838 31.1936 41.9642 30.8594 42.1203 30.5137L42.2103 30.3137C42.2603 30.2037 42.3003 30.0937 42.3403 29.9937C42.4978 29.6041 42.6118 29.1983 42.6803 28.7837V28.6137C42.9503 26.6137 41.9603 25.2737 40.2303 24.1537C41.1238 24.1039 41.9735 23.7508 42.639 23.1525C43.3045 22.5543 43.7459 21.7469 43.8903 20.8637C44.5103 18.4037 43.0603 16.6937 40.7403 15.3537ZM37.3103 29.0337C36.9729 29.4388 36.4936 29.6999 35.9703 29.7637C33.9703 30.1037 30.6203 28.7637 29.2903 28.1937L29.0703 28.1137L29.6403 26.4837L30.1103 25.1437L30.7503 23.2937L31.3403 23.5037C32.1203 23.7837 32.9003 24.0337 33.6603 24.3537C34.5472 24.6954 35.398 25.1242 36.2003 25.6337C36.5799 25.8363 36.9097 26.121 37.1657 26.4669C37.4217 26.8128 37.5975 27.2114 37.6803 27.6337C37.7455 28.1308 37.6126 28.6337 37.3103 29.0337ZM39.3103 20.0337C38.3703 22.6937 33.4403 20.8937 31.9303 20.2937H31.8003L33.4803 15.4737L34.0203 15.6637C35.8503 16.2237 40.0003 17.9937 39.3303 20.0537L39.3103 20.0337Z" fill="url(#paint6_linear_225_656)"/>
<path d="M39.1001 46.6137L37.3701 48.7137L37.6501 51.4237L39.3701 49.3137L39.1001 46.6137Z" fill="url(#paint7_linear_225_656)"/>
<path d="M33.8902 48.0337L34.0102 49.2737L29.5602 49.4637L29.4302 48.0537L27.6902 50.1637L27.9802 52.8737L29.6902 50.7637L29.6002 49.8037L34.0402 49.6037L34.1502 50.7937L37.1702 51.6937L36.8802 48.9337L33.8902 48.0337Z" fill="url(#paint8_linear_225_656)"/>
<path d="M35.8403 45.2237L34.0903 47.3737L37.0903 48.2837L38.8203 46.1237L35.8403 45.2237Z" fill="url(#paint9_linear_225_656)"/>
<path d="M24.2102 49.4737L24.4802 52.2637L27.5302 53.1737L27.2402 50.3837L24.2102 49.4737Z" fill="url(#paint10_linear_225_656)"/>
<path d="M30.2502 36.1937L28.0701 47.2037L29.1902 47.5437L27.4501 49.7237L24.4102 48.8137L25.2301 47.8037L21.5801 46.7637L20.6902 47.8637L20.4102 45.1437L22.1401 43.0437L22.4001 45.7437L21.8102 46.4837L25.4601 47.5237L26.1801 46.6337L27.1302 46.9237L30.2502 36.1937Z" fill="url(#paint11_linear_225_656)"/>
<path d="M16.9302 44.4637L17.1902 47.2237L20.2102 48.1237L19.9202 45.3637L16.9302 44.4637Z" fill="url(#paint12_linear_225_656)"/>
<path d="M18.8801 41.6537L17.1201 43.8037L20.1301 44.7137L21.8601 42.5537L18.8801 41.6537Z" fill="url(#paint13_linear_225_656)"/>
<path d="M20.7203 17.0837L18.4203 15.6337L15.7703 16.2237L18.0603 17.6837L20.7203 17.0837Z" fill="url(#paint14_linear_225_656)"/>
<path d="M14.9102 19.7237L15.6802 20.2037L13.9302 23.2237L13.1302 22.7137L10.4702 23.3037L12.7702 24.7737L15.4302 24.1637L14.2102 23.4037L15.9602 20.3837L17.1002 21.0937L17.6002 18.2237L15.4202 16.8337L14.9102 19.7237Z" fill="url(#paint15_linear_225_656)"/>
<path d="M12.3602 25.1137L10.0102 23.6237L9.48022 26.7237L11.8202 28.1937L12.3602 25.1137Z" fill="url(#paint16_linear_225_656)"/>
<path d="M10.9902 35.5837L13.3302 37.0537L13.8702 33.9737L11.5302 32.4837L10.9902 35.5837Z" fill="url(#paint17_linear_225_656)"/>
<path d="M14.0103 37.1737L16.7203 36.5637L17.2503 33.5037L14.5503 34.0837L14.0103 37.1737Z" fill="url(#paint18_linear_225_656)"/>
<path d="M11.9802 32.1637L14.2802 33.6337L16.9402 33.0237L14.6402 31.5837L13.8502 31.7537L14.1602 27.9337L15.2102 27.7037L15.4202 26.4937L15.4802 26.1637L15.7402 24.6437L13.0402 25.2137L12.5002 28.3037L13.8202 28.0137L13.5002 31.8337L11.9802 32.1637Z" fill="url(#paint19_linear_225_656)"/>
<path d="M25.5302 20.6937L20.5202 19.0837L20.7502 17.7937L18.2302 18.3237L17.7302 21.2037L20.2502 20.6437L20.3702 19.9837L25.5302 20.6937Z" fill="url(#paint20_linear_225_656)"/>
<path d="M51.7702 26.3037L49.6902 24.5537L46.9802 24.7637L49.0502 26.5337L51.7702 26.3037Z" fill="url(#paint21_linear_225_656)"/>
<path d="M51.0603 29.7937L52.0303 26.7937L49.2603 27.0237L48.3003 30.0037L49.7703 29.8937L49.7003 33.2437L48.0603 33.3737L50.1303 35.1437L52.8403 34.9137L50.7703 33.1637L49.9203 33.2237L49.9803 29.8637L51.0603 29.7937Z" fill="url(#paint22_linear_225_656)"/>
<path d="M45.5302 27.9937L47.6402 29.7937L48.6102 26.8037L46.4802 25.0337L46.1202 26.1437L43.2102 25.5537L45.8602 26.9537L45.5302 27.9937Z" fill="url(#paint23_linear_225_656)"/>
<path d="M50.3401 35.6037L49.3701 38.6137L52.1601 38.4037L53.1301 35.3737L50.3401 35.6037Z" fill="url(#paint24_linear_225_656)"/>
<path d="M47.5401 33.5937L47.0301 35.1637L46.9401 35.3837L46.5701 36.5837L47.5501 37.4237L46.7601 40.2537L46.0701 39.6737L43.3701 39.8837L45.4301 41.6637L48.1501 41.4337L46.9701 40.4337L47.7701 37.5937L48.7101 38.4037L49.6801 35.3837L47.5401 33.5937Z" fill="url(#paint25_linear_225_656)"/>
<path d="M44.6802 45.1337L47.4402 44.9137L48.4102 41.9237L45.6402 42.1537L44.6802 45.1337Z" fill="url(#paint26_linear_225_656)"/>
<path d="M42.8701 40.1637L41.9102 43.1237L44.0302 44.9137L44.9901 41.9337L42.8701 40.1637Z" fill="url(#paint27_linear_225_656)"/>
<path opacity="0.52" d="M38.7303 16.9037C39.8901 16.9037 40.8304 15.9635 40.8304 14.8037C40.8304 13.6439 39.8901 12.7037 38.7303 12.7037C37.5705 12.7037 36.6304 13.6439 36.6304 14.8037C36.6304 15.9635 37.5705 16.9037 38.7303 16.9037Z" fill="url(#paint28_radial_225_656)"/>
<defs>
<linearGradient id="paint0_linear_225_656" x1="6.02026" y1="30.5937" x2="58.7803" y2="30.5937" gradientUnits="userSpaceOnUse">
<stop offset="0.07" stop-color="#00082E"/>
<stop offset="0.11" stop-color="#050D3E"/>
<stop offset="0.2" stop-color="#121B64"/>
<stop offset="0.29" stop-color="#1D2583"/>
<stop offset="0.39" stop-color="#242D99"/>
<stop offset="0.47" stop-color="#2931A6"/>
<stop offset="0.55" stop-color="#2A33AA"/>
<stop offset="0.99" stop-color="#00082E"/>
</linearGradient>
<linearGradient id="paint1_linear_225_656" x1="32.5404" y1="13.1537" x2="58.3604" y2="13.1537" gradientUnits="userSpaceOnUse">
<stop offset="0.07" stop-color="#FBE78F"/>
<stop offset="0.11" stop-color="#FCE681"/>
<stop offset="0.2" stop-color="#FEE46B"/>
<stop offset="0.27" stop-color="#FFE35E"/>
<stop offset="0.35" stop-color="#FFE35A"/>
<stop offset="0.54" stop-color="white"/>
<stop offset="0.75" stop-color="#FEED95"/>
<stop offset="0.98" stop-color="#FEEB88"/>
<stop offset="0.99" stop-color="#FEEB88"/>
</linearGradient>
<linearGradient id="paint2_linear_225_656" x1="5.86016" y1="52.0837" x2="33.7302" y2="52.0837" gradientUnits="userSpaceOnUse">
<stop offset="0.07" stop-color="#B08934"/>
<stop offset="0.11" stop-color="#C29E3D"/>
<stop offset="0.17" stop-color="#DDBC49"/>
<stop offset="0.23" stop-color="#F0D253"/>
<stop offset="0.29" stop-color="#FBDF58"/>
<stop offset="0.35" stop-color="#FFE35A"/>
<stop offset="0.54" stop-color="#C98600"/>
<stop offset="0.75" stop-color="#FFBC48"/>
<stop offset="0.8" stop-color="#F2B445"/>
<stop offset="0.91" stop-color="#D19E3C"/>
<stop offset="0.99" stop-color="#B08934"/>
</linearGradient>
<radialGradient id="paint3_radial_225_656" cx="0" cy="0" r="1" gradientUnits="userSpaceOnUse" gradientTransform="translate(30.4403 30.3637) scale(48.1 48.1)">
<stop offset="0.33" stop-color="#FFE35A"/>
<stop offset="0.4" stop-color="#FAE68E"/>
<stop offset="0.43" stop-color="#DABF67"/>
<stop offset="0.45" stop-color="#C1A149"/>
<stop offset="0.48" stop-color="#AF8B33"/>
<stop offset="0.5" stop-color="#A57E26"/>
<stop offset="0.52" stop-color="#A17A22"/>
<stop offset="0.55" stop-color="#FEED95"/>
<stop offset="0.56" stop-color="#F4E089"/>
<stop offset="0.58" stop-color="#D9BE68"/>
<stop offset="0.6" stop-color="#B48F3B"/>
<stop offset="0.68" stop-color="#B48F3B"/>
<stop offset="0.78" stop-color="#EACC4B"/>
<stop offset="0.84" stop-color="#DFBF48"/>
<stop offset="0.96" stop-color="#C19E3F"/>
<stop offset="1" stop-color="#B48F3B"/>
</radialGradient>
<linearGradient id="paint4_linear_225_656" x1="31.1902" y1="12.8337" x2="57.0002" y2="12.8337" gradientUnits="userSpaceOnUse">
<stop offset="0.07" stop-color="#FBE78F"/>
<stop offset="0.11" stop-color="#FCE681"/>
<stop offset="0.2" stop-color="#FEE46B"/>
<stop offset="0.27" stop-color="#FFE35E"/>
<stop offset="0.35" stop-color="#FFE35A"/>
<stop offset="0.54" stop-color="white"/>
<stop offset="0.75" stop-color="#FEED95"/>
<stop offset="0.98" stop-color="#FEEB88"/>
<stop offset="0.99" stop-color="#FEEB88"/>
</linearGradient>
<linearGradient id="paint5_linear_225_656" x1="4.50029" y1="51.7637" x2="32.3703" y2="51.7637" gradientUnits="userSpaceOnUse">
<stop offset="0.07" stop-color="#B08934"/>
<stop offset="0.11" stop-color="#C29E3D"/>
<stop offset="0.17" stop-color="#DDBC49"/>
<stop offset="0.23" stop-color="#F0D253"/>
<stop offset="0.29" stop-color="#FBDF58"/>
<stop offset="0.35" stop-color="#FFE35A"/>
<stop offset="0.54" stop-color="#C98600"/>
<stop offset="0.75" stop-color="#FFBC48"/>
<stop offset="0.8" stop-color="#F2B445"/>
<stop offset="0.91" stop-color="#D19E3C"/>
<stop offset="0.99" stop-color="#B08934"/>
</linearGradient>
<linearGradient id="paint6_linear_225_656" x1="20.5703" y1="22.7237" x2="44.0403" y2="22.7237" gradientUnits="userSpaceOnUse">
<stop offset="0.07" stop-color="#FAE68E"/>
<stop offset="0.12" stop-color="#DABF67"/>
<stop offset="0.16" stop-color="#C1A149"/>
<stop offset="0.2" stop-color="#AF8B33"/>
<stop offset="0.24" stop-color="#A57E26"/>
<stop offset="0.28" stop-color="#A17A22"/>
<stop offset="0.54" stop-color="#FFE35A"/>
<stop offset="0.67" stop-color="#FEED95"/>
<stop offset="0.71" stop-color="#F4E089"/>
<stop offset="0.8" stop-color="#D9BE68"/>
<stop offset="0.91" stop-color="#B48F3B"/>
<stop offset="1" stop-color="#956D1B"/>
</linearGradient>
<linearGradient id="paint7_linear_225_656" x1="37.7881" y1="46.993" x2="38.9461" y2="51.0665" gradientUnits="userSpaceOnUse">
<stop stop-color="#FBE78F"/>
<stop offset="0.08" stop-color="#E7CE77"/>
<stop offset="0.19" stop-color="#CFB05A"/>
<stop offset="0.31" stop-color="#BE9A45"/>
<stop offset="0.42" stop-color="#B48D38"/>
<stop offset="0.52" stop-color="#B08934"/>
<stop offset="0.72" stop-color="#CFAC43"/>
<stop offset="1" stop-color="#FFE35A"/>
</linearGradient>
<linearGradient id="paint8_linear_225_656" x1="31.4437" y1="47.4891" x2="32.9901" y2="52.897" gradientUnits="userSpaceOnUse">
<stop stop-color="#FBE78F"/>
<stop offset="0.08" stop-color="#E7CE77"/>
<stop offset="0.19" stop-color="#CFB05A"/>
<stop offset="0.31" stop-color="#BE9A45"/>
<stop offset="0.42" stop-color="#B48D38"/>
<stop offset="0.52" stop-color="#B08934"/>
<stop offset="0.72" stop-color="#CFAC43"/>
<stop offset="1" stop-color="#FFE35A"/>
</linearGradient>
<linearGradient id="paint9_linear_225_656" x1="35.9982" y1="45.189" x2="36.8961" y2="48.343" gradientUnits="userSpaceOnUse">
<stop stop-color="#FBE78F"/>
<stop offset="0.08" stop-color="#E7CE77"/>
<stop offset="0.19" stop-color="#CFB05A"/>
<stop offset="0.31" stop-color="#BE9A45"/>
<stop offset="0.42" stop-color="#B48D38"/>
<stop offset="0.52" stop-color="#B08934"/>
<stop offset="0.72" stop-color="#CFAC43"/>
<stop offset="1" stop-color="#FFE35A"/>
</linearGradient>
<linearGradient id="paint10_linear_225_656" x1="25.2318" y1="49.1906" x2="26.4594" y2="53.4813" gradientUnits="userSpaceOnUse">
<stop stop-color="#FBE78F"/>
<stop offset="0.08" stop-color="#E7CE77"/>
<stop offset="0.19" stop-color="#CFB05A"/>
<stop offset="0.31" stop-color="#BE9A45"/>
<stop offset="0.42" stop-color="#B48D38"/>
<stop offset="0.52" stop-color="#B08934"/>
<stop offset="0.72" stop-color="#CFAC43"/>
<stop offset="1" stop-color="#FFE35A"/>
</linearGradient>
<linearGradient id="paint11_linear_225_656" x1="24.2808" y1="37.9112" x2="27.6451" y2="49.6762" gradientUnits="userSpaceOnUse">
<stop stop-color="#FBE78F"/>
<stop offset="0.08" stop-color="#E7CE77"/>
<stop offset="0.19" stop-color="#CFB05A"/>
<stop offset="0.31" stop-color="#BE9A45"/>
<stop offset="0.42" stop-color="#B48D38"/>
<stop offset="0.52" stop-color="#B08934"/>
<stop offset="0.72" stop-color="#CFAC43"/>
<stop offset="1" stop-color="#FFE35A"/>
</linearGradient>
<linearGradient id="paint12_linear_225_656" x1="17.9373" y1="44.1827" x2="19.1532" y2="48.4339" gradientUnits="userSpaceOnUse">
<stop stop-color="#FBE78F"/>
<stop offset="0.08" stop-color="#E7CE77"/>
<stop offset="0.19" stop-color="#CFB05A"/>
<stop offset="0.31" stop-color="#BE9A45"/>
<stop offset="0.42" stop-color="#B48D38"/>
<stop offset="0.52" stop-color="#B08934"/>
<stop offset="0.72" stop-color="#CFAC43"/>
<stop offset="1" stop-color="#FFE35A"/>
</linearGradient>
<linearGradient id="paint13_linear_225_656" x1="19.0266" y1="41.613" x2="19.9349" y2="44.7765" gradientUnits="userSpaceOnUse">
<stop stop-color="#FBE78F"/>
<stop offset="0.08" stop-color="#E7CE77"/>
<stop offset="0.19" stop-color="#CFB05A"/>
<stop offset="0.31" stop-color="#BE9A45"/>
<stop offset="0.42" stop-color="#B48D38"/>
<stop offset="0.52" stop-color="#B08934"/>
<stop offset="0.72" stop-color="#CFAC43"/>
<stop offset="1" stop-color="#FFE35A"/>
</linearGradient>
<linearGradient id="paint14_linear_225_656" x1="17.9403" y1="15.5937" x2="18.5503" y2="17.7037" gradientUnits="userSpaceOnUse">
<stop stop-color="#FBE78F"/>
<stop offset="0.08" stop-color="#E7CE77"/>
<stop offset="0.19" stop-color="#CFB05A"/>
<stop offset="0.31" stop-color="#BE9A45"/>
<stop offset="0.42" stop-color="#B48D38"/>
<stop offset="0.52" stop-color="#B08934"/>
<stop offset="0.72" stop-color="#CFAC43"/>
<stop offset="1" stop-color="#FFE35A"/>
</linearGradient>
<linearGradient id="paint15_linear_225_656" x1="13.1002" y1="17.5037" x2="15.0402" y2="24.2737" gradientUnits="userSpaceOnUse">
<stop stop-color="#FBE78F"/>
<stop offset="0.08" stop-color="#E7CE77"/>
<stop offset="0.19" stop-color="#CFB05A"/>
<stop offset="0.31" stop-color="#BE9A45"/>
<stop offset="0.42" stop-color="#B48D38"/>
<stop offset="0.52" stop-color="#B08934"/>
<stop offset="0.72" stop-color="#CFAC43"/>
<stop offset="1" stop-color="#FFE35A"/>
</linearGradient>
<linearGradient id="paint16_linear_225_656" x1="10.2402" y1="23.5537" x2="11.5902" y2="28.2537" gradientUnits="userSpaceOnUse">
<stop stop-color="#FBE78F"/>
<stop offset="0.08" stop-color="#E7CE77"/>
<stop offset="0.19" stop-color="#CFB05A"/>
<stop offset="0.31" stop-color="#BE9A45"/>
<stop offset="0.42" stop-color="#B48D38"/>
<stop offset="0.52" stop-color="#B08934"/>
<stop offset="0.72" stop-color="#CFAC43"/>
<stop offset="1" stop-color="#FFE35A"/>
</linearGradient>
<linearGradient id="paint17_linear_225_656" x1="11.7502" y1="32.4137" x2="13.1002" y2="37.1237" gradientUnits="userSpaceOnUse">
<stop stop-color="#FBE78F"/>
<stop offset="0.08" stop-color="#E7CE77"/>
<stop offset="0.19" stop-color="#CFB05A"/>
<stop offset="0.31" stop-color="#BE9A45"/>
<stop offset="0.42" stop-color="#B48D38"/>
<stop offset="0.52" stop-color="#B08934"/>
<stop offset="0.72" stop-color="#CFAC43"/>
<stop offset="1" stop-color="#FFE35A"/>
</linearGradient>
<linearGradient id="paint18_linear_225_656" x1="15.2203" y1="33.8937" x2="16.0403" y2="36.7637" gradientUnits="userSpaceOnUse">
<stop stop-color="#FBE78F"/>
<stop offset="0.08" stop-color="#E7CE77"/>
<stop offset="0.19" stop-color="#CFB05A"/>
<stop offset="0.31" stop-color="#BE9A45"/>
<stop offset="0.42" stop-color="#B48D38"/>
<stop offset="0.52" stop-color="#B08934"/>
<stop offset="0.72" stop-color="#CFAC43"/>
<stop offset="1" stop-color="#FFE35A"/>
</linearGradient>
<linearGradient id="paint19_linear_225_656" x1="12.9602" y1="25.2337" x2="15.3202" y2="33.4937" gradientUnits="userSpaceOnUse">
<stop stop-color="#FBE78F"/>
<stop offset="0.08" stop-color="#E7CE77"/>
<stop offset="0.19" stop-color="#CFB05A"/>
<stop offset="0.31" stop-color="#BE9A45"/>
<stop offset="0.42" stop-color="#B48D38"/>
<stop offset="0.52" stop-color="#B08934"/>
<stop offset="0.72" stop-color="#CFAC43"/>
<stop offset="1" stop-color="#FFE35A"/>
</linearGradient>
<linearGradient id="paint20_linear_225_656" x1="20.6802" y1="17.6237" x2="21.8602" y2="21.7437" gradientUnits="userSpaceOnUse">
<stop stop-color="#FBE78F"/>
<stop offset="0.08" stop-color="#E7CE77"/>
<stop offset="0.19" stop-color="#CFB05A"/>
<stop offset="0.31" stop-color="#BE9A45"/>
<stop offset="0.42" stop-color="#B48D38"/>
<stop offset="0.52" stop-color="#B08934"/>
<stop offset="0.72" stop-color="#CFAC43"/>
<stop offset="1" stop-color="#FFE35A"/>
</linearGradient>
<linearGradient id="paint21_linear_225_656" x1="48.9902" y1="24.1937" x2="49.7602" y2="26.8837" gradientUnits="userSpaceOnUse">
<stop stop-color="#FBE78F"/>
<stop offset="0.08" stop-color="#E7CE77"/>
<stop offset="0.19" stop-color="#CFB05A"/>
<stop offset="0.31" stop-color="#BE9A45"/>
<stop offset="0.42" stop-color="#B48D38"/>
<stop offset="0.52" stop-color="#B08934"/>
<stop offset="0.72" stop-color="#CFAC43"/>
<stop offset="1" stop-color="#FFE35A"/>
</linearGradient>
<linearGradient id="paint22_linear_225_656" x1="49.1703" y1="27.0537" x2="51.5303" y2="35.2937" gradientUnits="userSpaceOnUse">
<stop stop-color="#FBE78F"/>
<stop offset="0.08" stop-color="#E7CE77"/>
<stop offset="0.19" stop-color="#CFB05A"/>
<stop offset="0.31" stop-color="#BE9A45"/>
<stop offset="0.42" stop-color="#B48D38"/>
<stop offset="0.52" stop-color="#B08934"/>
<stop offset="0.72" stop-color="#CFAC43"/>
<stop offset="1" stop-color="#FFE35A"/>
</linearGradient>
<linearGradient id="paint23_linear_225_656" x1="45.5402" y1="24.8937" x2="47.0002" y2="29.9737" gradientUnits="userSpaceOnUse">
<stop stop-color="#FBE78F"/>
<stop offset="0.08" stop-color="#E7CE77"/>
<stop offset="0.19" stop-color="#CFB05A"/>
<stop offset="0.31" stop-color="#BE9A45"/>
<stop offset="0.42" stop-color="#B48D38"/>
<stop offset="0.52" stop-color="#B08934"/>
<stop offset="0.72" stop-color="#CFAC43"/>
<stop offset="1" stop-color="#FFE35A"/>
</linearGradient>
<linearGradient id="paint24_linear_225_656" x1="50.8201" y1="35.4737" x2="51.6901" y2="38.5337" gradientUnits="userSpaceOnUse">
<stop stop-color="#FBE78F"/>
<stop offset="0.08" stop-color="#E7CE77"/>
<stop offset="0.19" stop-color="#CFB05A"/>
<stop offset="0.31" stop-color="#BE9A45"/>
<stop offset="0.42" stop-color="#B48D38"/>
<stop offset="0.52" stop-color="#B08934"/>
<stop offset="0.72" stop-color="#CFAC43"/>
<stop offset="1" stop-color="#FFE35A"/>
</linearGradient>
<linearGradient id="paint25_linear_225_656" x1="45.5301" y1="34.1637" x2="47.6501" y2="41.5737" gradientUnits="userSpaceOnUse">
<stop stop-color="#FBE78F"/>
<stop offset="0.08" stop-color="#E7CE77"/>
<stop offset="0.19" stop-color="#CFB05A"/>
<stop offset="0.31" stop-color="#BE9A45"/>
<stop offset="0.42" stop-color="#B48D38"/>
<stop offset="0.52" stop-color="#B08934"/>
<stop offset="0.72" stop-color="#CFAC43"/>
<stop offset="1" stop-color="#FFE35A"/>
</linearGradient>
<linearGradient id="paint26_linear_225_656" x1="46.1202" y1="42.0137" x2="46.9802" y2="45.0537" gradientUnits="userSpaceOnUse">
<stop stop-color="#FBE78F"/>
<stop offset="0.08" stop-color="#E7CE77"/>
<stop offset="0.19" stop-color="#CFB05A"/>
<stop offset="0.31" stop-color="#BE9A45"/>
<stop offset="0.42" stop-color="#B48D38"/>
<stop offset="0.52" stop-color="#B08934"/>
<stop offset="0.72" stop-color="#CFAC43"/>
<stop offset="1" stop-color="#FFE35A"/>
</linearGradient>
<linearGradient id="paint27_linear_225_656" x1="42.7802" y1="40.1837" x2="44.1302" y2="44.8937" gradientUnits="userSpaceOnUse">
<stop stop-color="#FBE78F"/>
<stop offset="0.08" stop-color="#E7CE77"/>
<stop offset="0.19" stop-color="#CFB05A"/>
<stop offset="0.31" stop-color="#BE9A45"/>
<stop offset="0.42" stop-color="#B48D38"/>
<stop offset="0.52" stop-color="#B08934"/>
<stop offset="0.72" stop-color="#CFAC43"/>
<stop offset="1" stop-color="#FFE35A"/>
</linearGradient>
<radialGradient id="paint28_radial_225_656" cx="0" cy="0" r="1" gradientUnits="userSpaceOnUse" gradientTransform="translate(38.7304 14.8037) scale(2.09999 2.10001)">
<stop stop-color="white"/>
<stop offset="0.09" stop-color="white" stop-opacity="0.83"/>
<stop offset="0.23" stop-color="white" stop-opacity="0.61"/>
<stop offset="0.37" stop-color="white" stop-opacity="0.43"/>
<stop offset="0.5" stop-color="white" stop-opacity="0.27"/>
<stop offset="0.63" stop-color="white" stop-opacity="0.15"/>
<stop offset="0.76" stop-color="white" stop-opacity="0.07"/>
<stop offset="0.89" stop-color="white" stop-opacity="0.02"/>
<stop offset="1" stop-color="white" stop-opacity="0"/>
</radialGradient>
</defs>
</svg>
