<?xml version="1.0" standalone="no"?>
<!DOCTYPE svg PUBLIC "-//W3C//DTD SVG 20010904//EN"
 "http://www.w3.org/TR/2001/REC-SVG-20010904/DTD/svg10.dtd">
<svg version="1.0" xmlns="http://www.w3.org/2000/svg"
 width="200.000000pt" height="200.000000pt" viewBox="0 0 200.000000 200.000000"
 preserveAspectRatio="xMidYMid meet">

<g transform="translate(0.000000,200.000000) scale(0.100000,-0.100000)"
fill="#000000" stroke="none">
<path d="M0 1000 l0 -1000 1000 0 1000 0 0 1000 0 1000 -1000 0 -1000 0 0
-1000z m1173 754 c351 -79 597 -390 597 -753 -1 -242 -79 -413 -216 -471 -147
-64 -378 -48 -520 35 -52 30 -104 74 -104 86 0 5 31 9 70 9 134 0 242 66 300
183 53 109 50 225 -11 353 -79 168 -232 301 -414 361 -69 23 -100 27 -218 29
-76 1 -141 5 -144 7 -8 9 78 68 152 103 150 72 346 94 508 58z m-379 -259 c38
-8 99 -28 135 -45 66 -31 157 -98 146 -108 -3 -3 -38 -6 -78 -7 -216 -3 -376
-206 -327 -416 28 -123 124 -272 228 -355 131 -104 280 -155 452 -156 58 0
111 1 119 3 31 9 18 -20 -23 -49 -212 -153 -504 -184 -753 -81 -221 92 -394
300 -447 536 -35 157 -14 369 50 500 74 152 278 225 498 178z"/>
</g>
</svg>
