<?xml version="1.0" standalone="no"?>
<!DOCTYPE svg PUBLIC "-//W3C//DTD SVG 20010904//EN"
 "http://www.w3.org/TR/2001/REC-SVG-20010904/DTD/svg10.dtd">
<svg version="1.0" xmlns="http://www.w3.org/2000/svg"
 width="256.000000pt" height="269.000000pt" viewBox="0 0 256.000000 269.000000"
 preserveAspectRatio="xMidYMid meet">

<g transform="translate(0.000000,269.000000) scale(0.100000,-0.100000)"
fill="#000000" stroke="none">
<path d="M1165 2315 c-168 -31 -348 -130 -501 -277 -427 -410 -445 -896 -48
-1317 190 -202 419 -322 644 -338 248 -17 481 86 706 311 174 174 273 349 304
537 43 265 -67 548 -306 784 -249 247 -525 351 -799 300z m474 -210 c98 -23
177 -70 261 -155 121 -120 170 -236 170 -401 0 -216 -108 -437 -315 -644 -210
-210 -427 -315 -652 -315 -341 0 -605 300 -562 640 25 201 131 394 319 581
246 245 531 352 779 294z"/>
<path d="M1231 1599 c-117 -36 -189 -146 -178 -270 12 -131 116 -227 248 -229
96 0 178 47 225 132 24 45 29 64 29 123 -1 101 -49 181 -139 227 -46 23 -136
32 -185 17z"/>
</g>
</svg>
