<?xml version="1.0" standalone="no"?>
<!DOCTYPE svg PUBLIC "-//W3C//DTD SVG 20010904//EN"
 "http://www.w3.org/TR/2001/REC-SVG-20010904/DTD/svg10.dtd">
<svg version="1.0" xmlns="http://www.w3.org/2000/svg"
 width="350.000000pt" height="120.000000pt" viewBox="0 0 350.000000 120.000000"
 preserveAspectRatio="xMidYMid meet">

<g transform="translate(0.000000,120.000000) scale(0.100000,-0.100000)"
fill="#000000" stroke="none">
<path d="M0 600 l0 -600 1750 0 1750 0 0 600 0 600 -1750 0 -1750 0 0 -600z
m520 21 c-18 -97 -15 -101 33 -53 l43 42 69 -23 c42 -14 64 -26 57 -31 -7 -4
-50 -20 -95 -35 l-82 -28 -29 -94 -30 -93 -21 69 c-19 63 -20 78 -10 143 l12
73 -43 -42 -42 -41 -70 23 c-39 12 -69 25 -67 29 2 3 44 19 93 34 l90 29 28
95 28 94 23 -68 c20 -59 22 -76 13 -123z m751 43 c56 -28 76 -121 39 -181 -26
-44 -54 -56 -113 -50 -71 6 -107 46 -107 118 0 59 21 96 65 115 40 18 80 17
116 -2z m1636 6 c18 0 73 -50 73 -66 0 -21 -34 -17 -55 6 -22 24 -72 26 -97 3
-39 -35 -11 -143 38 -143 30 0 73 31 74 53 0 4 -16 7 -35 7 -29 0 -35 4 -35
20 0 19 5 21 58 18 l57 -3 3 -67 c3 -63 1 -68 -18 -68 -11 0 -20 7 -20 16 0
14 -2 14 -22 0 -47 -33 -134 -10 -157 41 -16 34 -13 99 5 134 17 34 68 61 99
54 11 -3 25 -5 32 -5z m-1957 -76 l45 -75 3 75 c3 73 4 76 27 76 l25 0 0 -120
0 -120 -27 0 c-24 0 -35 11 -75 78 l-48 77 0 -77 c0 -76 0 -78 -25 -78 l-25 0
0 120 0 120 28 0 c24 0 34 -10 72 -76z m464 19 c37 -116 35 -113 56 -65 11 24
24 61 30 83 9 34 14 39 40 39 32 0 32 -7 -4 -75 -9 -16 -16 -35 -16 -42 0 -6
-10 -36 -21 -67 -19 -48 -25 -56 -48 -56 -25 0 -30 8 -69 113 -23 61 -42 115
-42 120 0 4 13 7 28 7 26 0 30 -5 46 -57z m296 0 c12 -32 33 -86 46 -120 l24
-63 -28 0 c-19 0 -30 7 -37 23 -8 17 -19 23 -56 25 -40 3 -47 0 -57 -23 -8
-17 -19 -25 -37 -25 -30 0 -29 13 6 83 11 20 17 37 15 37 -3 0 2 17 11 38 8
20 19 47 24 60 6 16 17 22 37 22 26 0 32 -6 52 -57z m320 37 c0 -18 -7 -20
-55 -20 -54 0 -55 0 -55 -30 0 -29 2 -30 45 -30 38 0 45 -3 45 -20 0 -17 -7
-20 -45 -20 -43 0 -45 -1 -45 -30 l0 -30 60 0 c53 0 60 -2 60 -20 0 -18 -7
-20 -85 -20 l-85 0 0 120 0 120 80 0 c73 0 80 -2 80 -20z m150 -56 l45 -75 3
75 c3 73 4 76 27 76 l25 0 0 -120 0 -120 -28 0 c-24 0 -34 11 -75 77 l-47 78
0 -78 c0 -75 0 -77 -25 -77 l-25 0 0 120 0 120 28 0 c24 0 34 -10 72 -76z
m320 56 c0 -18 -7 -20 -60 -20 l-60 0 0 -30 c0 -29 2 -30 45 -30 38 0 45 -3
45 -20 0 -17 -7 -20 -45 -20 -43 0 -45 -1 -45 -30 l0 -30 60 0 c53 0 60 -2 60
-20 0 -18 -7 -20 -85 -20 l-85 0 0 120 0 120 85 0 c78 0 85 -2 85 -20z m205 0
c22 -24 23 -67 1 -88 -13 -13 -13 -18 -2 -31 7 -9 16 -35 20 -58 6 -41 5 -43
-18 -43 -21 0 -26 6 -33 43 -8 40 -11 42 -46 45 l-37 3 0 -45 c0 -42 -2 -46
-25 -46 l-25 0 0 120 0 120 73 0 c61 0 77 -4 92 -20z m375 -30 c26 -56 36 -55
65 10 14 30 24 40 42 40 12 0 23 -3 23 -6 0 -3 -18 -36 -40 -74 -31 -53 -40
-79 -40 -114 0 -42 -2 -46 -25 -46 -23 0 -25 4 -25 46 0 36 -10 64 -41 120
l-40 74 29 0 c25 0 32 -7 52 -50z"/>
<path d="M1168 617 c-22 -17 -33 -79 -18 -106 17 -33 55 -44 91 -26 26 14 29
20 29 65 0 39 -4 52 -22 64 -27 19 -57 20 -80 3z"/>
<path d="M1646 576 c-3 -13 -9 -31 -12 -40 -5 -13 1 -16 25 -16 36 0 36 0 17
45 -18 41 -22 43 -30 11z"/>
<path d="M2590 595 c0 -33 2 -35 34 -35 39 0 57 17 49 48 -4 18 -13 22 -44 22
-38 0 -39 -1 -39 -35z"/>
</g>
</svg>
