<?xml version="1.0" encoding="UTF-8"?>
<svg xmlns="http://www.w3.org/2000/svg" xmlns:xlink="http://www.w3.org/1999/xlink" width="120px" height="27px" viewBox="0 0 200 27" version="1.1">
<g id="surface1">
<path style=" stroke:none;fill-rule:nonzero;fill:rgb(17.647059%,55.686277%,64.313728%);fill-opacity:1;" d="M 26.980469 13.5 C 26.980469 6.042969 20.984375 0 13.585938 0 C 6.191406 0 0.195312 6.042969 0.195312 13.5 C 0.195312 20.957031 6.191406 27 13.585938 27 C 20.984375 27 26.980469 20.957031 26.980469 13.5 Z M 26.980469 13.5 "/>
<path style=" stroke:none;fill-rule:nonzero;fill:rgb(17.647059%,55.686277%,64.313728%);fill-opacity:1;" d="M 31.480469 23.476562 L 31.480469 2.769531 L 41.632812 2.769531 C 42.886719 2.769531 44.023438 3.058594 45.054688 3.640625 C 46.082031 4.222656 46.898438 5.015625 47.503906 6.019531 C 48.113281 7.027344 48.414062 8.160156 48.414062 9.425781 C 48.414062 10.6875 48.101562 11.898438 47.472656 12.945312 C 46.847656 13.992188 46 14.820312 44.9375 15.429688 C 43.871094 16.042969 42.691406 16.347656 41.398438 16.347656 L 35.882812 16.347656 L 35.882812 23.476562 Z M 35.824219 12.355469 L 40.8125 12.355469 C 41.359375 12.355469 41.863281 12.226562 42.324219 11.972656 C 42.78125 11.714844 43.148438 11.371094 43.421875 10.9375 C 43.699219 10.503906 43.832031 10.007812 43.832031 9.457031 C 43.832031 8.90625 43.699219 8.457031 43.421875 8.050781 C 43.148438 7.648438 42.78125 7.332031 42.324219 7.105469 C 41.863281 6.878906 41.359375 6.765625 40.8125 6.765625 L 35.824219 6.765625 Z M 35.824219 12.355469 "/>
<path style=" stroke:none;fill-rule:nonzero;fill:rgb(17.647059%,55.686277%,64.313728%);fill-opacity:1;" d="M 63.289062 23.773438 C 61.625 23.773438 60.105469 23.507812 58.726562 22.972656 C 57.347656 22.441406 56.140625 21.691406 55.101562 20.726562 C 54.0625 19.761719 53.273438 18.625 52.722656 17.324219 C 52.175781 16.023438 51.902344 14.601562 51.902344 13.0625 C 51.902344 11.527344 52.175781 10.109375 52.722656 8.816406 C 53.273438 7.523438 54.0625 6.390625 55.101562 5.414062 C 56.140625 4.4375 57.347656 3.6875 58.726562 3.152344 C 60.105469 2.617188 61.625 2.351562 63.289062 2.351562 C 64.953125 2.351562 66.472656 2.617188 67.851562 3.152344 C 69.230469 3.683594 70.433594 4.4375 71.464844 5.414062 C 72.488281 6.390625 73.28125 7.53125 73.839844 8.832031 C 74.398438 10.132812 74.675781 11.542969 74.675781 13.0625 C 74.675781 14.578125 74.398438 15.988281 73.839844 17.289062 C 73.28125 18.589844 72.488281 19.730469 71.464844 20.707031 C 70.4375 21.683594 69.234375 22.4375 67.851562 22.972656 C 66.472656 23.503906 64.953125 23.769531 63.289062 23.769531 Z M 63.289062 19.574219 C 64.285156 19.574219 65.210938 19.414062 66.0625 19.097656 C 66.914062 18.78125 67.644531 18.332031 68.261719 17.738281 C 68.875 17.148438 69.355469 16.457031 69.699219 15.667969 C 70.042969 14.878906 70.214844 14.011719 70.214844 13.066406 C 70.214844 12.121094 70.042969 11.253906 69.699219 10.464844 C 69.355469 9.675781 68.875 8.992188 68.261719 8.410156 C 67.644531 7.828125 66.910156 7.375 66.0625 7.046875 C 65.210938 6.722656 64.285156 6.558594 63.289062 6.558594 C 62.292969 6.558594 61.371094 6.722656 60.53125 7.046875 C 59.691406 7.375 58.953125 7.832031 58.316406 8.421875 C 57.675781 9.015625 57.199219 9.703125 56.875 10.496094 C 56.554688 11.28125 56.390625 12.140625 56.390625 13.070312 C 56.390625 13.996094 56.554688 14.878906 56.875 15.65625 C 57.199219 16.4375 57.679688 17.125 58.316406 17.730469 C 58.949219 18.332031 59.691406 18.789062 60.53125 19.105469 C 61.371094 19.417969 62.292969 19.578125 63.289062 19.578125 Z M 63.289062 19.574219 "/>
<path style=" stroke:none;fill-rule:nonzero;fill:rgb(17.647059%,55.686277%,64.313728%);fill-opacity:1;" d="M 79.515625 23.476562 L 79.515625 2.769531 L 83.917969 2.769531 L 83.917969 19.484375 L 94.863281 19.484375 L 94.863281 23.476562 Z M 79.515625 23.476562 "/>
<path style=" stroke:none;fill-rule:nonzero;fill:rgb(17.647059%,55.686277%,64.313728%);fill-opacity:1;" d="M 99.734375 23.476562 L 99.734375 2.769531 L 103.78125 2.769531 L 116.785156 18.238281 L 116.078125 18.238281 C 115.980469 17.589844 115.902344 16.953125 115.84375 16.332031 C 115.789062 15.710938 115.730469 15.089844 115.683594 14.46875 C 115.636719 13.847656 115.597656 13.21875 115.566406 12.574219 C 115.535156 11.933594 115.519531 11.273438 115.507812 10.59375 C 115.496094 9.914062 115.492188 9.1875 115.492188 8.421875 L 115.492188 2.769531 L 119.804688 2.769531 L 119.804688 23.476562 L 115.699219 23.476562 L 102.460938 7.855469 L 103.457031 7.886719 C 103.519531 8.617188 103.574219 9.28125 103.636719 9.882812 C 103.695312 10.484375 103.753906 11.039062 103.8125 11.554688 C 103.871094 12.066406 103.914062 12.558594 103.945312 13.035156 C 103.976562 13.503906 104 13.992188 104.019531 14.484375 C 104.039062 14.976562 104.046875 15.488281 104.046875 16.023438 L 104.046875 23.476562 Z M 99.734375 23.476562 "/>
<path style=" stroke:none;fill-rule:nonzero;fill:rgb(100%,100%,100%);fill-opacity:1;" d="M 9.585938 23.257812 C 9.417969 23.257812 9.246094 23.210938 9.09375 23.113281 C 8.65625 22.839844 8.523438 22.261719 8.796875 21.820312 L 11.980469 16.03125 C 12.148438 15.757812 12.449219 15.589844 12.769531 15.589844 L 14.371094 15.589844 C 14.601562 15.589844 14.820312 15.464844 14.9375 15.261719 L 15.734375 13.863281 C 15.851562 13.660156 15.851562 13.414062 15.734375 13.210938 L 14.9375 11.8125 C 14.820312 11.609375 14.601562 11.484375 14.371094 11.484375 L 12.769531 11.484375 C 12.539062 11.484375 12.324219 11.613281 12.207031 11.8125 C 12.203125 11.824219 12.195312 11.835938 12.183594 11.847656 L 8.675781 17.453125 C 8.402344 17.890625 7.824219 18.019531 7.390625 17.742188 C 6.957031 17.464844 6.828125 16.882812 7.105469 16.449219 L 10.605469 10.855469 C 11.054688 10.089844 11.882812 9.609375 12.769531 9.609375 L 14.371094 9.609375 C 15.269531 9.609375 16.101562 10.097656 16.546875 10.875 L 17.347656 12.273438 C 17.792969 13.054688 17.792969 14.023438 17.347656 14.804688 L 16.546875 16.203125 C 16.101562 16.984375 15.269531 17.46875 14.371094 17.46875 L 13.285156 17.46875 L 10.371094 22.816406 C 10.195312 23.101562 9.894531 23.257812 9.582031 23.257812 Z M 9.585938 23.257812 "/>
<path style=" stroke:none;fill-rule:nonzero;fill:rgb(100%,100%,100%);fill-opacity:1;" d="M 20.414062 14.4375 L 16.921875 14.4375 C 16.40625 14.4375 15.988281 14.019531 15.988281 13.5 C 15.988281 12.980469 16.40625 12.5625 16.921875 12.5625 L 20.414062 12.5625 C 20.929688 12.5625 21.34375 12.980469 21.34375 13.5 C 21.34375 14.019531 20.929688 14.4375 20.414062 14.4375 Z M 20.414062 14.4375 "/>
<path style=" stroke:none;fill-rule:nonzero;fill:rgb(100%,100%,100%);fill-opacity:1;" d="M 15.191406 11.558594 C 15.035156 11.558594 14.871094 11.519531 14.726562 11.433594 C 14.28125 11.175781 14.128906 10.601562 14.386719 10.152344 L 16.132812 7.101562 C 16.390625 6.65625 16.957031 6.5 17.40625 6.757812 C 17.847656 7.019531 18 7.589844 17.746094 8.042969 L 15.996094 11.089844 C 15.824219 11.390625 15.511719 11.558594 15.191406 11.558594 Z M 15.191406 11.558594 "/>
<path style=" stroke:none;fill-rule:nonzero;fill:rgb(100%,100%,100%);fill-opacity:1;" d="M 11.9375 11.488281 C 11.617188 11.488281 11.304688 11.320312 11.132812 11.019531 L 9.382812 7.96875 C 9.128906 7.523438 9.28125 6.949219 9.722656 6.6875 C 10.167969 6.429688 10.738281 6.582031 10.996094 7.03125 L 12.742188 10.082031 C 13 10.527344 12.847656 11.101562 12.402344 11.363281 C 12.257812 11.445312 12.09375 11.488281 11.9375 11.488281 Z M 11.9375 11.488281 "/>
<path style=" stroke:none;fill-rule:nonzero;fill:rgb(100%,100%,100%);fill-opacity:1;" d="M 16.976562 20.457031 C 16.65625 20.457031 16.34375 20.289062 16.171875 19.988281 L 14.421875 16.9375 C 14.167969 16.492188 14.320312 15.917969 14.765625 15.65625 C 15.207031 15.398438 15.777344 15.554688 16.035156 16 L 17.785156 19.050781 C 18.039062 19.496094 17.886719 20.070312 17.445312 20.332031 C 17.296875 20.417969 17.136719 20.457031 16.976562 20.457031 Z M 16.976562 20.457031 "/>
<path style=" stroke:none;fill-rule:nonzero;fill:rgb(100%,100%,100%);fill-opacity:1;" d="M 13.585938 24.160156 C 12.058594 24.160156 10.585938 23.839844 9.210938 23.203125 C 8.761719 23 8.5625 22.464844 8.765625 22.007812 C 8.96875 21.554688 9.5 21.355469 9.953125 21.558594 C 11.097656 22.085938 12.320312 22.355469 13.589844 22.355469 C 18.433594 22.355469 22.375 18.382812 22.375 13.5 C 22.375 8.617188 18.433594 4.644531 13.589844 4.644531 C 8.746094 4.644531 4.804688 8.621094 4.804688 13.5 C 4.804688 15.875 5.726562 18.109375 7.402344 19.78125 C 7.753906 20.132812 7.753906 20.703125 7.40625 21.058594 C 7.058594 21.414062 6.492188 21.414062 6.140625 21.0625 C 4.125 19.046875 3.015625 16.363281 3.015625 13.5 C 3.015625 7.625 7.761719 2.84375 13.589844 2.84375 C 19.421875 2.84375 24.164062 7.625 24.164062 13.5 C 24.164062 19.375 19.421875 24.15625 13.589844 24.15625 Z M 13.585938 24.160156 "/>
</g>
</svg>
