<?xml version="1.0" encoding="UTF-8"?>
<svg id="Layer_1" xmlns="http://www.w3.org/2000/svg" viewBox="0 0 439.28 98.38">
  <defs>
    <style>
      .cls-1 {
        fill: #fff;
      }

      .cls-2 {
        fill: #2d8ea4;
      }
    </style>
  </defs>
  <circle class="cls-2" cx="49.19" cy="49.19" r="49.19"/>
  <path class="cls-2" d="M114.9,85.54V10.09h37.29c4.6,0,8.78,1.06,12.56,3.18,3.77,2.12,6.77,5.01,9,8.67,2.23,3.67,3.34,7.8,3.34,12.4s-1.15,9.02-3.45,12.83c-2.3,3.81-5.41,6.83-9.32,9.05-3.92,2.23-8.25,3.34-12.99,3.34h-20.26v25.98h-16.17ZM130.85,45.02h18.32c2.01,0,3.86-.47,5.55-1.4,1.69-.93,3.03-2.19,4.04-3.77,1.01-1.58,1.51-3.38,1.51-5.39s-.5-3.65-1.51-5.12c-1.01-1.47-2.35-2.62-4.04-3.45-1.69-.82-3.54-1.24-5.55-1.24h-18.32v20.37Z"/>
  <path class="cls-2" d="M231.72,86.62c-6.11,0-11.69-.97-16.76-2.91-5.06-1.94-9.5-4.67-13.31-8.19-3.81-3.52-6.72-7.65-8.73-12.4-2.01-4.74-3.02-9.92-3.02-15.52s1.01-10.76,3.02-15.47c2.01-4.71,4.92-8.84,8.73-12.4,3.81-3.56,8.25-6.3,13.31-8.25,5.07-1.94,10.65-2.91,16.76-2.91s11.69.97,16.76,2.91c5.06,1.94,9.48,4.69,13.26,8.25,3.77,3.56,6.68,7.71,8.73,12.45,2.05,4.74,3.07,9.88,3.07,15.41s-1.02,10.67-3.07,15.41c-2.05,4.74-4.96,8.89-8.73,12.45-3.77,3.56-8.19,6.3-13.26,8.25-5.07,1.94-10.65,2.91-16.76,2.91ZM231.72,71.32c3.66,0,7.06-.58,10.18-1.73,3.13-1.15,5.82-2.8,8.08-4.96,2.26-2.15,4.02-4.67,5.28-7.54,1.26-2.87,1.89-6.04,1.89-9.48s-.63-6.61-1.89-9.48c-1.26-2.87-3.02-5.37-5.28-7.49-2.26-2.12-4.96-3.77-8.08-4.96-3.12-1.19-6.52-1.78-10.18-1.78s-7.04.59-10.13,1.78c-3.09,1.19-5.8,2.86-8.14,5.01-2.34,2.16-4.1,4.67-5.28,7.55-1.19,2.87-1.78,6-1.78,9.38s.59,6.59,1.78,9.43c1.19,2.84,2.95,5.35,5.28,7.55,2.33,2.19,5.05,3.86,8.14,5.01,3.09,1.15,6.47,1.73,10.13,1.73Z"/>
  <path class="cls-2" d="M291.31,85.54V10.09h16.17v60.9h40.2v14.55h-56.37Z"/>
  <path class="cls-2" d="M365.56,85.54V10.09h14.87l47.75,56.37h-2.59c-.36-2.37-.65-4.69-.86-6.95s-.42-4.53-.59-6.79c-.18-2.26-.32-4.56-.43-6.9-.11-2.34-.18-4.74-.22-7.22-.04-2.48-.05-5.12-.05-7.92V10.09h15.84v75.45h-15.09l-48.61-56.91,3.66.11c.22,2.66.43,5.08.65,7.27.22,2.19.43,4.22.65,6.09s.38,3.66.49,5.39c.11,1.72.2,3.49.27,5.28.07,1.8.11,3.66.11,5.61v27.16h-15.84Z"/>
  <g>
    <g>
      <path class="cls-1" d="M34.49,84.74c-.62,0-1.24-.17-1.81-.52-1.6-1-2.09-3.11-1.09-4.71l11.7-21.09c.62-1,1.72-1.61,2.9-1.61h5.88c.85,0,1.64-.46,2.07-1.2l2.94-5.09c.43-.74.43-1.65,0-2.39l-2.94-5.09c-.43-.74-1.22-1.19-2.07-1.19h-5.88c-.85,0-1.64.46-2.07,1.19-.02.04-.05.08-.08.13l-12.89,20.43c-1.01,1.59-3.12,2.06-4.72,1.05-1.59-1.01-2.06-3.13-1.05-4.72l12.86-20.37c1.65-2.8,4.69-4.54,7.95-4.54h5.88c3.29,0,6.35,1.77,7.99,4.61l2.94,5.09c1.64,2.85,1.64,6.38,0,9.23l-2.94,5.09c-1.64,2.85-4.7,4.61-7.99,4.61h-3.99l-10.7,19.48c-.65,1.04-1.76,1.61-2.9,1.61Z"/>
      <path class="cls-1" d="M74.26,52.61h-12.83c-1.89,0-3.42-1.53-3.42-3.42s1.53-3.42,3.42-3.42h12.83c1.89,0,3.42,1.53,3.42,3.42s-1.53,3.42-3.42,3.42Z"/>
      <path class="cls-1" d="M55.08,42.12c-.58,0-1.17-.15-1.71-.46-1.63-.94-2.19-3.03-1.25-4.67l6.42-11.11c.94-1.63,3.03-2.2,4.67-1.25,1.63.94,2.19,3.03,1.25,4.67l-6.42,11.11c-.63,1.1-1.78,1.71-2.96,1.71Z"/>
      <path class="cls-1" d="M43.13,41.86c-1.18,0-2.33-.61-2.96-1.71l-6.42-11.11c-.94-1.63-.38-3.72,1.25-4.67,1.63-.94,3.72-.38,4.67,1.25l6.42,11.11c.94,1.63.38,3.72-1.25,4.67-.54.31-1.13.46-1.71.46Z"/>
      <path class="cls-1" d="M61.64,74.54c-1.18,0-2.33-.61-2.96-1.71l-6.42-11.11c-.94-1.63-.38-3.72,1.25-4.67,1.63-.94,3.72-.38,4.67,1.25l6.42,11.11c.94,1.63.38,3.72-1.25,4.67-.54.31-1.13.46-1.71.46Z"/>
    </g>
    <path class="cls-1" d="M49.19,88.03c-5.61,0-11.02-1.17-16.08-3.48-1.65-.75-2.38-2.7-1.63-4.36.75-1.65,2.7-2.38,4.36-1.63,4.2,1.91,8.7,2.89,13.36,2.89,17.79,0,32.26-14.47,32.26-32.26s-14.47-32.26-32.26-32.26S16.94,31.41,16.94,49.19c0,8.66,3.38,16.79,9.53,22.89,1.29,1.28,1.3,3.36.02,4.65-1.28,1.29-3.36,1.3-4.65.02-7.4-7.35-11.47-17.13-11.47-27.56,0-21.41,17.42-38.83,38.83-38.83s38.83,17.42,38.83,38.83-17.42,38.83-38.83,38.83Z"/>
  </g>
</svg>