<?xml version="1.0" standalone="no"?>
<!DOCTYPE svg PUBLIC "-//W3C//DTD SVG 20010904//EN"
 "http://www.w3.org/TR/2001/REC-SVG-20010904/DTD/svg10.dtd">
<svg version="1.0" xmlns="http://www.w3.org/2000/svg"
 width="256.000000pt" height="256.000000pt" viewBox="0 0 256.000000 256.000000"
 preserveAspectRatio="xMidYMid meet">

<g transform="translate(0.000000,256.000000) scale(0.100000,-0.100000)"
fill="#000000" stroke="none">
<path d="M1340 2301 c5 -11 10 -28 10 -38 0 -13 61 -54 221 -146 121 -71 224
-127 229 -125 5 2 -85 57 -200 123 -188 107 -210 123 -210 146 0 26 -27 59
-49 59 -8 0 -9 -5 -1 -19z"/>
<path d="M1250 2281 c-7 -15 -6 -24 6 -36 19 -18 33 -16 48 7 7 12 6 21 -3 32
-18 22 -38 20 -51 -3z"/>
<path d="M1082 2132 c-119 -69 -130 -78 -105 -82 28 -5 27 -6 -21 -33 -28 -16
-64 -27 -85 -27 l-36 0 43 26 c60 36 45 43 -17 8 -27 -16 -46 -31 -41 -34 5
-3 -72 -53 -170 -110 l-180 -104 0 -37 c0 -28 -6 -43 -24 -57 -31 -24 -32 -45
-23 -432 5 -225 9 -276 20 -278 8 -2 17 6 20 18 4 16 13 20 47 20 35 0 43 4
58 29 13 24 22 29 47 27 16 -2 37 -6 46 -10 23 -10 93 10 140 40 39 24 75 32
64 14 -4 -6 5 -10 19 -10 14 0 26 -4 26 -10 0 -5 -5 -10 -12 -10 -6 0 -8 -3
-5 -6 4 -4 13 -1 22 6 14 11 13 14 -2 25 -10 8 -15 17 -10 21 4 4 7 2 7 -5 0
-7 5 -9 11 -5 7 4 26 7 43 6 19 0 25 2 17 7 -10 6 -9 10 4 15 9 3 21 4 26 1 5
-4 6 2 2 12 -5 14 -3 16 7 6 17 -15 40 -5 33 14 -5 13 -1 15 22 11 19 -4 33 0
46 13 11 11 19 16 19 13 0 -3 14 3 30 13 19 11 30 25 30 39 0 12 11 32 25 45
14 14 25 35 25 52 0 22 -4 27 -25 27 l-26 0 3 133 3 132 28 3 c27 3 27 4 27
74 0 60 -3 71 -19 75 -12 3 -18 14 -18 30 0 17 6 27 18 30 18 5 19 17 19 168
0 139 -2 164 -16 169 -24 9 -20 11 -162 -72z m-14 -204 c44 -44 -40 -188 -110
-188 -63 0 -29 135 46 181 36 22 48 23 64 7z m-450 -365 c3 -22 0 -23 -57 -23
-59 0 -61 1 -61 25 0 25 2 26 58 23 50 -3 57 -6 60 -25z m90 -275 c28 -28 4
-101 -50 -157 -39 -40 -91 -41 -96 -2 -7 48 9 92 49 132 40 40 74 50 97 27z"/>
<path d="M1307 2203 c-4 -3 -6 -81 -6 -172 1 -91 4 -154 6 -138 5 33 23 36 23
3 0 -15 7 -26 20 -29 14 -3 20 -14 20 -31 0 -19 -5 -26 -20 -26 -15 0 -20 7
-20 25 0 14 -4 25 -9 25 -10 0 -21 -75 -21 -151 0 -52 -2 -59 -20 -59 -19 0
-20 -7 -20 -130 0 -123 1 -130 20 -130 15 0 20 -7 20 -26 0 -14 11 -39 25 -56
14 -16 25 -37 25 -47 0 -24 138 -101 182 -101 22 0 61 -16 113 -46 44 -25 120
-69 169 -97 78 -44 86 -52 66 -57 -24 -6 -23 -6 10 -26 148 -88 199 -114 214
-108 14 5 16 29 16 190 0 116 -4 184 -10 184 -13 0 -13 57 0 62 6 2 10 85 10
207 1 195 1 204 -19 218 -15 10 -21 25 -21 51 0 37 0 37 -130 112 -102 59
-126 76 -113 84 13 7 10 13 -23 32 -21 13 -50 24 -64 24 -22 -1 -19 -4 20 -28
39 -23 42 -27 23 -30 -28 -4 -128 49 -112 59 7 4 -28 30 -87 64 -297 173 -274
162 -287 148z m393 -451 c160 -105 165 -109 168 -145 3 -40 1 -42 -27 -27 -17
9 -18 7 -5 -28 18 -51 18 -142 -1 -169 -14 -21 -12 -23 53 -60 64 -37 67 -40
70 -81 l3 -42 -83 49 c-46 27 -146 85 -223 129 l-140 79 -3 43 c-4 51 -5 51
114 -20 103 -63 137 -66 154 -14 13 38 7 92 -16 135 -17 33 -43 54 -161 129
-89 56 -93 61 -93 95 0 21 5 35 13 35 6 -1 86 -49 177 -108z"/>
<path d="M1901 1926 c16 -15 203 -116 210 -114 10 3 -187 118 -203 118 -6 0
-9 -2 -7 -4z"/>
<path d="M1275 1850 c-3 -5 -1 -18 4 -27 9 -16 10 -14 11 10 0 28 -5 34 -15
17z"/>
<path d="M2210 1771 c16 -30 12 -50 -15 -77 -25 -25 -25 -25 -25 -224 0 -127
4 -200 10 -200 6 0 10 -16 10 -35 0 -19 -4 -35 -10 -35 -6 0 -10 -65 -10 -176
0 -173 0 -177 25 -206 30 -36 31 -57 5 -91 -25 -31 -25 -37 -1 -37 57 0 89 88
43 118 -22 14 -22 15 -22 433 0 406 1 420 20 439 25 25 26 72 2 93 -26 24 -46
22 -32 -2z"/>
<path d="M381 1756 c-16 -20 -3 -46 24 -46 13 0 26 7 29 16 7 19 -10 44 -29
44 -7 0 -18 -6 -24 -14z"/>
<path d="M2120 1755 c-15 -18 2 -45 30 -45 23 0 34 28 19 46 -15 18 -33 18
-49 -1z"/>
<path d="M1252 1277 c-9 -10 -8 -18 2 -32 18 -25 48 -13 44 17 -4 27 -30 35
-46 15z"/>
<path d="M2152 1235 c0 -16 2 -22 5 -12 2 9 2 23 0 30 -3 6 -5 -1 -5 -18z"/>
<path d="M1215 1190 c-4 -6 -12 -7 -18 -3 -9 5 -8 2 0 -8 10 -13 10 -19 -2
-35 -8 -10 -15 -15 -15 -11 0 4 -12 -4 -27 -18 -16 -14 -37 -28 -48 -31 -11
-4 -27 -12 -35 -19 -21 -17 -70 -28 -70 -15 0 5 -8 10 -17 10 -17 -1 -17 -1 0
-11 16 -9 14 -13 -15 -49 -20 -25 -42 -40 -55 -40 -13 0 -23 -4 -23 -10 0 -5
7 -10 15 -10 27 0 15 -15 -35 -42 -42 -24 -62 -28 -128 -28 -85 0 -131 -8
-112 -20 7 -5 -1 -15 -24 -28 -20 -12 -36 -26 -36 -32 0 -6 -4 -9 -9 -5 -5 3
-12 -3 -16 -14 -4 -13 -13 -18 -27 -16 -24 5 -37 15 -20 15 7 0 12 5 12 12 0
19 -23 -8 -27 -32 -2 -15 14 -29 75 -65 42 -24 89 -45 104 -45 36 0 138 -61
115 -69 -10 -4 64 -53 211 -139 l226 -133 33 18 c31 17 36 17 62 2 29 -17 29
-17 216 92 144 84 196 109 224 109 20 0 53 10 75 24 l38 23 -38 6 c-22 4 -57
7 -79 7 l-40 0 33 20 c22 14 50 20 89 20 50 0 67 6 155 57 137 79 137 79 -57
190 -134 76 -151 89 -128 93 24 4 8 16 -117 86 -191 107 -184 104 -220 104
-17 0 -53 11 -81 25 -43 22 -55 24 -87 16 -24 -7 -40 -7 -46 -1 -13 13 -23 13
-31 0z m145 -188 c73 -36 31 -110 -68 -120 -56 -5 -118 18 -127 49 -22 67 108
115 195 71z m-680 -146 c0 -2 -6 -9 -13 -15 -10 -8 -14 -7 -14 4 0 8 6 15 14
15 7 0 13 -2 13 -4z m281 -76 c111 -31 71 -117 -52 -114 -139 5 -134 109 6
123 6 0 26 -4 46 -9z m783 -21 c14 -11 26 -27 26 -34 0 -30 -51 -55 -109 -55
-70 0 -105 17 -109 52 -4 36 36 57 109 58 42 0 63 -5 83 -21z m-1234 -13 c0
-3 -4 -8 -10 -11 -5 -3 -10 -1 -10 4 0 6 5 11 10 11 6 0 10 -2 10 -4z m861
-195 c20 -16 22 -23 13 -38 -29 -49 -145 -57 -187 -14 l-22 22 28 25 c37 32
132 35 168 5z"/>
<path d="M818 1034 c-38 -20 -36 -28 2 -9 17 9 30 18 30 20 0 7 -1 6 -32 -11z"/>
<path d="M635 937 c-6 -4 -28 -19 -50 -33 l-40 -24 52 2 c34 1 65 9 88 22 l35
22 -38 10 c-22 6 -42 6 -47 1z"/>
<path d="M848 943 c6 -2 18 -2 25 0 6 3 1 5 -13 5 -14 0 -19 -2 -12 -5z"/>
<path d="M493 855 c0 -8 4 -12 9 -9 5 3 6 10 3 15 -9 13 -12 11 -12 -6z"/>
<path d="M574 825 c-10 -8 -14 -15 -8 -15 6 0 17 7 24 15 16 19 9 19 -16 0z"/>
<path d="M414 782 c4 -20 1 -23 -15 -19 -22 6 -26 -8 -5 -16 23 -9 40 18 26
40 -10 16 -11 15 -6 -5z"/>
<path d="M2120 785 c-10 -12 -10 -18 0 -30 26 -32 68 -8 54 30 -4 8 -14 15
-24 15 -10 0 -23 -7 -30 -15z"/>
<path d="M1995 639 c-92 -54 -97 -59 -66 -59 30 0 139 54 216 106 18 13 17 14
-15 13 -23 -1 -68 -21 -135 -60z"/>
<path d="M652 605 c20 -14 43 -25 50 -25 15 0 -61 49 -77 50 -5 0 7 -11 27
-25z"/>
<path d="M1805 513 c-41 -6 -455 -244 -455 -262 0 -8 -12 -28 -27 -43 l-27
-28 25 0 c32 0 69 26 69 50 0 28 384 249 451 259 65 11 89 32 34 30 -22 -1
-53 -4 -70 -6z"/>
<path d="M1254 275 c-9 -23 3 -45 25 -45 23 0 35 28 20 46 -15 18 -38 18 -45
-1z"/>
</g>
</svg>
