<?xml version="1.0" standalone="no"?>
<!DOCTYPE svg PUBLIC "-//W3C//DTD SVG 20010904//EN"
 "http://www.w3.org/TR/2001/REC-SVG-20010904/DTD/svg10.dtd">
<svg version="1.0" xmlns="http://www.w3.org/2000/svg"
 width="500.000000pt" height="500.000000pt" viewBox="0 0 500.000000 500.000000"
 preserveAspectRatio="xMidYMid meet">

<g transform="translate(0.000000,500.000000) scale(0.100000,-0.100000)"
fill="#000000" stroke="none">
<path d="M2404 4409 c-120 -9 -228 -39 -349 -98 -129 -63 -199 -118 -365 -285
l-135 -136 140 -134 140 -134 140 137 c206 201 300 250 494 259 224 10 335
-43 560 -263 l137 -134 137 137 137 138 -152 150 c-84 83 -182 170 -217 194
-137 92 -311 156 -451 166 -41 3 -86 6 -100 8 -14 1 -66 -1 -116 -5z"/>
<path d="M900 3921 c-153 -29 -283 -118 -371 -254 -56 -86 -80 -166 -86 -282
-6 -120 15 -223 71 -338 59 -122 57 -121 104 -41 53 90 79 124 154 202 l61 65
1 72 c1 60 5 78 28 113 46 68 108 89 217 71 138 -21 135 -19 621 -504 l445
-445 138 138 137 137 -457 456 c-449 447 -514 505 -619 550 -128 54 -328 81
-444 60z"/>
<path d="M3835 3916 c-103 -20 -222 -69 -302 -126 -47 -33 -434 -414 -1154
-1136 -596 -597 -1103 -1099 -1127 -1116 -62 -43 -146 -70 -222 -71 -82 -1
-132 22 -168 76 -23 34 -27 52 -27 113 l-1 72 -73 77 c-73 77 -136 166 -161
224 -7 18 -18 30 -24 28 -20 -6 -95 -169 -116 -251 -24 -95 -26 -218 -5 -301
48 -189 200 -352 380 -408 91 -28 265 -29 370 -3 82 22 194 71 262 116 26 18
550 533 1163 1145 784 783 1128 1119 1159 1135 59 29 176 53 225 45 100 -16
163 -101 153 -203 l-6 -56 75 -78 c75 -78 139 -168 164 -227 7 -18 17 -30 23
-28 16 5 85 144 108 217 29 92 36 246 15 329 -26 100 -73 186 -147 265 -108
116 -218 165 -389 171 -65 3 -132 -1 -175 -9z"/>
<path d="M949 3283 c-200 -204 -276 -325 -331 -531 -31 -117 -36 -328 -10
-453 46 -223 134 -371 350 -591 l147 -149 138 137 139 136 -124 127 c-68 69
-138 144 -155 166 -107 140 -150 350 -107 524 32 129 85 212 236 367 l137 140
-137 137 -138 138 -145 -148z"/>
<path d="M3768 3293 l-137 -138 132 -135 c202 -207 252 -310 252 -520 0 -211
-48 -308 -260 -528 l-140 -145 140 -134 140 -134 146 148 c160 163 210 230
275 367 71 152 88 233 89 426 0 139 -4 178 -22 245 -58 213 -136 339 -336 542
l-142 144 -137 -138z"/>
<path d="M2730 2265 l-135 -135 425 -426 c234 -234 450 -445 480 -468 75 -59
182 -111 282 -138 117 -31 285 -31 383 -1 183 57 331 219 381 415 36 137 2
334 -82 486 -37 66 -49 74 -59 41 -13 -41 -125 -196 -184 -254 l-61 -59 6 -52
c8 -67 -7 -111 -54 -157 -50 -49 -116 -63 -212 -43 -37 8 -87 24 -111 36 -30
15 -186 163 -479 456 -239 239 -438 434 -440 434 -3 0 -66 -61 -140 -135z"/>
<path d="M1690 1245 l-135 -135 135 -136 c74 -74 164 -158 200 -185 83 -63
220 -131 335 -166 84 -25 102 -27 275 -27 173 0 191 2 275 27 206 63 331 146
540 356 l129 130 -138 135 -139 135 -142 -137 c-150 -144 -212 -188 -323 -230
-60 -23 -82 -26 -202 -26 -114 0 -144 4 -194 22 -117 43 -182 89 -330 232 -79
77 -145 140 -147 140 -3 0 -65 -61 -139 -135z"/>
</g>
</svg>
