<?xml version="1.0" standalone="no"?>
<!DOCTYPE svg PUBLIC "-//W3C//DTD SVG 20010904//EN"
 "http://www.w3.org/TR/2001/REC-SVG-20010904/DTD/svg10.dtd">
<svg version="1.0" xmlns="http://www.w3.org/2000/svg"
 width="200.000000pt" height="200.000000pt" viewBox="0 0 200.000000 200.000000"
 preserveAspectRatio="xMidYMid meet">

<g transform="translate(0.000000,200.000000) scale(0.100000,-0.100000)"
fill="#000000" stroke="none">
<path d="M907 1804 c-165 -84 -460 -184 -545 -184 -15 0 -38 -7 -50 -16 -21
-14 -22 -22 -22 -138 0 -350 59 -683 150 -842 40 -69 175 -211 275 -290 117
-91 253 -174 285 -174 32 0 175 88 286 175 120 94 245 232 287 317 86 176 137
470 137 800 0 130 -1 138 -22 152 -12 9 -35 16 -50 16 -83 0 -377 99 -545 184
-40 20 -83 36 -95 36 -13 -1 -54 -17 -91 -36z m205 -64 c183 -86 337 -138 473
-161 l78 -13 -6 -201 c-9 -304 -50 -530 -124 -683 -54 -111 -221 -277 -392
-390 -68 -45 -131 -82 -140 -82 -24 0 -193 112 -281 185 -90 76 -175 163 -218
227 -92 134 -148 399 -159 748 l-6 196 79 13 c108 17 326 92 459 156 61 29
115 54 121 54 6 1 58 -21 116 -49z"/>
<path d="M885 1620 c-91 -44 -280 -112 -394 -141 l-44 -11 7 -146 c11 -250 49
-458 105 -577 51 -109 191 -250 359 -362 l83 -56 82 56 c167 114 301 245 353
349 59 116 101 339 111 589 l6 147 -44 11 c-106 27 -300 96 -397 141 -58 28
-110 50 -116 49 -6 0 -56 -23 -111 -49z m289 -159 c28 -12 65 -33 83 -47 l33
-25 -41 -60 c-44 -62 -58 -69 -80 -42 -39 47 -197 71 -259 40 -31 -16 -54 -61
-46 -92 11 -43 45 -63 145 -85 147 -33 185 -48 234 -91 59 -51 82 -115 74
-205 -13 -161 -133 -243 -341 -231 -119 6 -193 34 -258 97 l-50 49 20 28 c11
15 34 44 51 63 l30 35 31 -33 c64 -67 104 -85 194 -90 80 -4 84 -3 116 25 28
25 33 36 33 73 0 65 -34 91 -159 119 -165 38 -227 75 -265 156 -24 51 -25 154
-3 201 24 51 96 109 156 128 77 23 236 17 302 -13z"/>
</g>
</svg>
