<?xml version="1.0" encoding="UTF-8"?>
<svg version="1.1" xmlns="http://www.w3.org/2000/svg" width="398" height="368">
<path d="M0 0 C131.34 0 262.68 0 398 0 C398 121.44 398 242.88 398 368 C266.66 368 135.32 368 0 368 C0 246.56 0 125.12 0 0 Z " fill="#FEFEFE" transform="translate(0,0)"/>
<path d="M0 0 C5.61 0 11.22 0 17 0 C17 21.45 17 42.9 17 65 C32.51 65 48.02 65 64 65 C64.66 63.68 65.32 62.36 66 61 C67.22265109 59.25138864 68.47573678 57.52386513 69.75 55.8125 C72.21639461 52.46651304 74.61724318 49.11484698 76.875 45.625 C79.33227074 41.88596371 82.00326057 38.34124613 84.75 34.8125 C87.82559972 30.86055708 90.85005211 26.88490655 93.75585938 22.8059082 C94.5866716 21.64169507 95.42659653 20.48393254 96.27539062 19.33276367 C98.47659922 16.31540035 100.38877145 13.33819918 102.078125 10.00390625 C106.22743345 2.32644901 106.22743345 2.32644901 110 0 C117.19347924 -1.67151385 124.73365341 -0.8675381 132 0 C131.34 1.65 130.68 3.3 130 5 C129.34 5 128.68 5 128 5 C127.773125 5.680625 127.54625 6.36125 127.3125 7.0625 C125.68773854 10.6988709 123.67196743 14.02829263 121 17 C120.34 17 119.68 17 119 17 C118.7628125 17.6909375 118.525625 18.381875 118.28125 19.09375 C116.75606877 22.55330743 114.72170977 25.46672422 112.5 28.5 C112.06220215 29.10513428 111.6244043 29.71026855 111.17333984 30.33374023 C105.93058225 37.53949251 100.55472226 44.67222476 94.8984375 51.55859375 C92.98150311 53.92122329 92.98150311 53.92122329 91.58227539 56.37329102 C90.0920442 58.84719895 88.500701 61.14722689 86.78515625 63.46875 C85.87926758 64.69658203 85.87926758 64.69658203 84.95507812 65.94921875 C84.33052734 66.79097656 83.70597656 67.63273437 83.0625 68.5 C82.44181641 69.34175781 81.82113281 70.18351562 81.18164062 71.05078125 C78.1908747 75.09580013 75.14738811 79.07510984 72 83 C71.54625 83.763125 71.0925 84.52625 70.625 85.3125 C69.15603377 87.74194415 67.60608573 90.0176896 65.9375 92.3125 C65.43089844 93.00988281 64.92429687 93.70726562 64.40234375 94.42578125 C63.93957031 94.94527344 63.47679687 95.46476562 63 96 C62.34 96 61.68 96 61 96 C60.92394531 96.53882813 60.84789062 97.07765625 60.76953125 97.6328125 C59.70056733 100.92109744 57.80493054 103.15110409 55.6875 105.875 C52.62729533 109.83050422 49.76352161 113.83287157 47 118 C45.57742308 119.94848336 44.13955471 121.88588389 42.6875 123.8125 C41.90503906 124.85148437 41.12257812 125.89046875 40.31640625 126.9609375 C37.75138313 130.32617863 35.14640872 133.65703835 32.5078125 136.96484375 C30.85865909 138.99600023 30.85865909 138.99600023 29.97265625 141.734375 C28 144 28 144 25.79589844 144.39672852 C22.95244248 144.49377038 20.15491369 144.43445174 17.3125 144.3125 C16.32443359 144.28994141 15.33636719 144.26738281 14.31835938 144.24414062 C11.87738441 144.18517988 9.43945132 144.10295048 7 144 C7.66 142.02 8.32 140.04 9 138 C9.66 138 10.32 138 11 138 C11 137.01 11 136.02 11 135 C12.485 134.01 12.485 134.01 14 133 C14.99028447 131.30441975 15.97604285 129.60559376 16.91552734 127.88134766 C18.61208782 124.93814751 20.70809418 122.348662 22.8125 119.6875 C26.43538939 115.06189988 29.88871025 110.36744888 33.22265625 105.52734375 C35.91713929 101.69584808 38.75653464 97.97649182 41.59375 94.25 C44.81676101 89.89684228 47.89387775 85.43731751 51 81 C34.17 80.67 17.34 80.34 0 80 C0 53.6 0 27.2 0 0 Z " fill="#081007" transform="translate(129,108)"/>
<path d="M0 0 C18.15 0 36.3 0 55 0 C55 0.66 55 1.32 55 2 C56.27875 2.144375 57.5575 2.28875 58.875 2.4375 C61.25692894 2.70642746 62.84452691 2.92226346 65 4 C65 4.66 65 5.32 65 6 C65.7425 6 66.485 6 67.25 6 C71.04512342 7.38004488 71.64997594 9.45567968 73.30078125 12.9921875 C74 15 74 15 74 18 C74.66 18 75.32 18 76 18 C76.02690104 20.79173055 76.04679053 23.58320348 76.0625 26.375 C76.07087891 27.1690625 76.07925781 27.963125 76.08789062 28.78125 C76.11328125 34.7734375 76.11328125 34.7734375 75 37 C74.34 37 73.68 37 73 37 C72.79375 37.886875 72.5875 38.77375 72.375 39.6875 C70.58072293 44.01007657 68.81642469 45.32850272 65 48 C62.625 48.8125 62.625 48.8125 61 49 C61 49.66 61 50.32 61 51 C58.21945349 51.78670772 55.76039307 52.12265947 52.87402344 52.11352539 C52.07349548 52.11344986 51.27296753 52.11337433 50.44818115 52.11329651 C49.16672211 52.10555458 49.16672211 52.10555458 47.859375 52.09765625 C46.97719299 52.0962413 46.09501099 52.09482635 45.18609619 52.09336853 C42.37402935 52.08778001 39.5620427 52.07522961 36.75 52.0625 C34.84114698 52.05748352 32.93229272 52.05292087 31.0234375 52.04882812 C26.34890272 52.03866609 21.67454093 52.01908842 17 52 C17 61.24 17 70.48 17 80 C11.39 80 5.78 80 0 80 C0 53.6 0 27.2 0 0 Z " fill="#0A1109" transform="translate(43,108)"/>
<path d="M0 0 C1.44656982 0.00193359 1.44656982 0.00193359 2.92236328 0.00390625 C9.66002813 0.09497116 15.81684923 0.77716668 22.125 3.3125 C22.125 3.9725 22.125 4.6325 22.125 5.3125 C22.681875 5.415625 23.23875 5.51875 23.8125 5.625 C30.34178551 7.56613894 33.46634995 11.85925894 37.125 17.3125 C38.125 19.3125 38.125 19.3125 38.125 27.3125 C32.515 27.3125 26.905 27.3125 21.125 27.3125 C20.465 25.6625 19.805 24.0125 19.125 22.3125 C16.15856807 18.56585583 12.51699427 16.61020331 7.75927734 16.01806641 C-0.98227843 15.50820934 -9.52968478 15.47737921 -17.875 18.3125 C-17.875 21.9425 -17.875 25.5725 -17.875 29.3125 C-12.4581484 31.0554389 -7.34395756 31.77412212 -1.6875 32.25 C11.25466537 33.50828335 25.21824056 35.69271869 35.25 44.8125 C39.46039105 50.42635473 39.93813461 56.50117761 39.125 63.3125 C37.50626187 69.36375597 33.79259365 72.91891665 29.02734375 76.76953125 C20.47960103 81.31375517 11.62860831 81.76443087 2.125 81.625 C0.47757812 81.62983398 0.47757812 81.62983398 -1.203125 81.63476562 C-22.25699588 81.49756623 -22.25699588 81.49756623 -28.875 75.5 C-29.535 74.778125 -30.195 74.05625 -30.875 73.3125 C-31.7 72.57 -32.525 71.8275 -33.375 71.0625 C-37.87825516 66.10891932 -39.875 62.04131153 -39.875 55.3125 C-33.935 55.3125 -27.995 55.3125 -21.875 55.3125 C-19.875 59.3125 -19.875 59.3125 -19.875 62.3125 C-19.18792969 62.51746094 -18.50085938 62.72242188 -17.79296875 62.93359375 C-16.89191406 63.20300781 -15.99085938 63.47242188 -15.0625 63.75 C-14.16917969 64.01683594 -13.27585937 64.28367188 -12.35546875 64.55859375 C-10.52026945 65.11637873 -8.69466274 65.70594575 -6.875 66.3125 C-3.60903032 66.59025109 -0.33899525 66.5898696 2.9375 66.625 C3.82759766 66.65400391 4.71769531 66.68300781 5.63476562 66.71289062 C11.545308 66.76984915 14.50259707 65.99155539 19.125 62.3125 C19.785 62.3125 20.445 62.3125 21.125 62.3125 C20.63 57.8575 20.63 57.8575 20.125 53.3125 C19.155625 53.003125 18.18625 52.69375 17.1875 52.375 C14.125 51.3125 14.125 51.3125 13.125 50.3125 C11.3200243 50.04940376 9.50652364 49.84435604 7.69140625 49.6640625 C6.56669922 49.54546875 5.44199219 49.426875 4.28320312 49.3046875 C1.921647 49.06352913 -0.44032697 48.82642135 -2.80273438 48.59375 C-15.0718946 47.28541074 -25.69631599 44.95458531 -34.375 35.625 C-38.12807302 29.83901243 -37.4081854 23.02285913 -36.125 16.5 C-33.72692411 10.38490647 -30.51534572 7.79811894 -24.77734375 5.01171875 C-22.875 4.3125 -22.875 4.3125 -19.875 4.3125 C-19.875 3.6525 -19.875 2.9925 -19.875 2.3125 C-13.13726482 0.58328576 -6.94603332 -0.03852887 0 0 Z " fill="#0A1209" transform="translate(319.875,171.6875)"/>
<path d="M0 0 C6.6 0 13.2 0 20 0 C19.67 2.31 19.34 4.62 19 7 C18.34 7 17.68 7 17 7 C16.773125 7.78375 16.54625 8.5675 16.3125 9.375 C15.22630189 12.37497572 14.02315591 14.99237819 12.5625 17.8125 C10.94648836 20.96466224 9.59519506 23.98800608 8.5625 27.375 C7.05648024 32.23729237 4.75407703 36.59748964 2.4296875 41.11328125 C0.66677859 44.6728159 -0.70172273 48.24942121 -2 52 C-2.66 52 -3.32 52 -4 52 C-4.226875 53.093125 -4.45375 54.18625 -4.6875 55.3125 C-5.81096806 59.84649609 -7.66578968 63.89368133 -9.68359375 68.09375 C-11.29678365 71.65521376 -12.62718342 75.33915578 -14 79 C-21.26 79 -28.52 79 -36 79 C-36 78.34 -36 77.68 -36 77 C-36.66 77 -37.32 77 -38 77 C-38.39832031 75.99839844 -38.79664063 74.99679688 -39.20703125 73.96484375 C-39.74214036 72.62237704 -40.27729928 71.27993019 -40.8125 69.9375 C-41.07353516 69.28072266 -41.33457031 68.62394531 -41.60351562 67.94726562 C-44.76118968 60.03358866 -48.23820777 52.40585015 -52.21484375 44.87304688 C-54.23225676 40.94022488 -55.73907311 37.49597107 -56 33 C-54.3125 31.0625 -54.3125 31.0625 -52 29 C-51.27517333 27.83490824 -50.58924379 26.64499432 -49.9375 25.4375 C-47.31918009 20.7920937 -47.31918009 20.7920937 -45 19 C-44.34 19 -43.68 19 -43 19 C-42.61328125 19.99 -42.2265625 20.98 -41.828125 22 C-38.20941976 31.20216752 -38.20941976 31.20216752 -33.9296875 40.109375 C-32.812924 42.38044026 -31.91171446 44.70193699 -31 47.0625 C-29.34450562 51.31291614 -27.37004626 55.10635257 -25 59 C-24.73445313 58.30132812 -24.46890625 57.60265625 -24.1953125 56.8828125 C-23.66550781 55.51769531 -23.66550781 55.51769531 -23.125 54.125 C-22.60292969 52.76761719 -22.60292969 52.76761719 -22.0703125 51.3828125 C-21 49 -21 49 -19 47 C-18.27915259 45.21037855 -18.27915259 45.21037855 -17.6875 43.125 C-15.5370234 36.37883482 -13.1099841 29.49548745 -9.44140625 23.41796875 C-8.07849643 21.13167829 -7.2269524 19.09325882 -6.4375 16.5625 C-6.19257813 15.79164063 -5.94765625 15.02078125 -5.6953125 14.2265625 C-5.46585938 13.49179688 -5.23640625 12.75703125 -5 12 C-4.33333333 10 -3.66666667 8 -3 6 C-2.34 6 -1.68 6 -1 6 C-0.67 4.02 -0.34 2.04 0 0 Z " fill="#0B120A" transform="translate(260,173)"/>
<path d="M0 0 C4.42971461 -0.06917426 8.85752753 -0.12881128 13.28735352 -0.16479492 C14.79165017 -0.17980722 16.29590361 -0.20022353 17.80004883 -0.22631836 C19.97227696 -0.26303816 22.14392251 -0.27980161 24.31640625 -0.29296875 C25.62037354 -0.3086792 26.92434082 -0.32438965 28.26782227 -0.34057617 C33.17358515 0.10709435 37.09401201 1.40142943 40.9375 4.625 C42.62592597 8.39912863 42.63984414 11.94296625 42 16 C39.93757605 20.0511899 38.27663031 22.44849898 34 24 C31.35288399 24.16811103 28.81568466 24.23305596 26.171875 24.1953125 C25.04836639 24.19106766 25.04836639 24.19106766 23.90216064 24.18673706 C21.51794224 24.1755726 19.13410421 24.15047531 16.75 24.125 C15.13021377 24.11496535 13.51042164 24.10584035 11.890625 24.09765625 C7.92682011 24.07734987 3.96383411 24.0381954 0 24 C0 16.08 0 8.16 0 0 Z " fill="#F7F7F7" transform="translate(60,122)"/>
</svg>
